<svg width="596" height="478" viewBox="0 0 596 478" fill="none" xmlns="http://www.w3.org/2000/svg">
<path fill-rule="evenodd" clip-rule="evenodd" d="M464.408 98.3633C466.986 107.354 468.094 116.143 470.257 125.201C472.639 135.17 475.148 145.537 478.409 155.212C484.5 173.295 494.444 185.51 503.819 202.127C511.131 215.09 531.347 258.904 535.107 265.815C537.457 270.134 538.966 276.502 540.579 281.19C541.493 283.844 542.475 290.542 542.041 293.265C534.991 292.425 527.495 291.507 520.596 293.265C518.351 293.838 510.652 298.766 508.489 298.189C506.104 297.553 507.516 293.689 506.611 291.335C504.045 284.659 501.177 277.836 499.303 270.928C497.387 263.866 484.578 220.07 477.326 205.84C473.598 198.527 470.809 191.149 466.654 184.102C462.333 176.773 458.751 169.741 451.656 165.1C452.392 158.753 455.78 151.828 457.743 145.766C459.662 139.836 460.567 134.657 461.27 128.337C461.939 122.335 464.079 116.459 463.261 110.341C462.836 107.159 460.883 105.029 460.161 102.215C459.746 100.596 458.626 102.02 460.209 99.9883C460.948 99.0411 463.465 99.0378 464.408 98.3633ZM458.49 103.052C459.717 110.168 455.676 119.973 454.226 126.992C452.706 134.343 450.89 141.524 449.252 148.825C448.44 152.446 446.881 155.631 445.875 159.138C444.747 163.074 444.225 167.181 443.068 171.132C440.762 179.007 437.583 186.561 438.487 194.943C439.273 202.232 440.213 210.089 442.452 217.013C445.11 225.228 447.608 232.986 448.207 241.741C448.775 250.067 446.88 258.735 444.834 266.714C444.109 269.539 438.642 290.026 436.984 289.732C435.723 280.448 428.984 271.357 424.643 263.309C419.649 254.052 412.336 246.039 405.094 238.668C407.127 237.82 409.056 233.34 410.035 231.228C411.387 228.311 412.959 225.357 414.509 222.56C417.347 217.439 425.35 197.082 427.793 191.984C430.686 185.948 449.983 125.009 449.553 118.693C449.36 115.869 449.207 114.824 450.612 112.688C452.453 109.888 456.385 105.761 458.49 103.052ZM413.811 100.227C413.811 103.038 414.048 103.548 412.478 105.431C411.148 107.025 409.428 108.175 408.138 109.898C405.246 113.76 402.709 117.944 400.65 122.377C396.649 130.993 393.999 141.188 392.679 150.692C391.222 161.183 392.07 171.944 391.427 182.501C391.188 186.425 390.556 191.059 388.118 194.217C385.936 197.044 381.967 199.114 378.967 200.73C372.1 204.426 366.313 209.312 361.079 215.437C359.803 216.93 359.452 220.334 358.002 221.572C356.537 222.823 352.085 226.533 350.37 227.35C346.385 229.25 330.861 227.452 326.647 226.666C322.446 225.883 316.469 222.142 312.761 220.177C307.5 217.388 300.856 211.474 292.83 202.435C315.558 193.164 341.781 184.421 362.076 169.576C362.191 171.343 365.078 176.229 365.374 174.772C367.271 165.456 368.544 156.018 370.416 146.705C370.913 144.233 371.409 141.752 372.307 139.417C372.756 138.247 367.494 137.349 365.374 138.245C357.476 141.584 349.28 143.214 340.964 145.172C325.639 148.779 308.216 150.162 294.97 160.019C289.319 164.225 283.692 169.595 279.108 174.902C274.018 180.796 269.288 190.512 268.592 198.715C259.392 194.289 247.367 196.2 237.882 197.117C241.324 187.865 252.538 178.741 259.455 172.436C265.169 167.226 270.757 161.829 277.061 157.403C291.125 147.527 305.306 138.177 321.529 132.585C329.558 129.817 337.576 127.022 345.934 125.587C350.491 124.805 355.116 124.565 359.698 124.072C364.167 123.591 365.87 122.571 369.175 119.215C375.349 112.945 383.836 111.547 391.791 109.297C399.61 107.086 407.124 105.205 413.811 100.227ZM275.855 69.7279L286.294 75.3738C282.069 77.2037 278.79 78.4463 276.456 79.1018C272.955 80.0851 268.151 94.4814 263.645 94.4814C259.139 94.4814 259.104 81.9206 261.332 76.781C262.817 73.3547 267.658 71.0036 275.855 69.7279Z" fill="#FF6161"/>
<path fill-rule="evenodd" clip-rule="evenodd" d="M237.742 250.691C238.398 250.93 238.64 250.477 238.468 249.331C237.812 249.019 237.57 249.472 237.742 250.691ZM465.317 76.2028C464.278 76.3044 464.866 77.4002 465.482 77.8099C465.427 77.2744 465.372 76.739 465.317 76.2028ZM404.76 237.296C405.379 236.79 405.158 236.361 404.099 236.013C403.496 236.536 403.717 236.965 404.76 237.296ZM170.03 234.545C166.663 233.968 164.054 228.519 161.277 229.666C157.802 231.102 154.621 237.583 152.246 240.502C154.077 242.072 156.103 243.484 158.041 244.898C160.041 246.357 159.527 246.874 161.543 245.139C163.01 243.878 164.185 241.606 165.402 240.056C166.863 238.192 168.72 236.535 170.03 234.545ZM247.626 440.959C248.222 441.013 248.626 426.65 249.11 424.673C250.184 420.286 252.057 415.869 254.129 411.924C255.015 410.24 256.595 408.068 257.267 406.34C258.301 403.677 256.627 401.859 256.155 398.802C255.15 392.284 256.483 386.524 258.621 380.48C254.684 379.525 250.887 377.952 246.883 377.295C246.883 383.063 246.349 387.897 244.122 393.187C243.564 394.513 242.442 395.589 242.923 397.21C243.079 397.738 244.454 398.08 244.784 398.566C246.639 401.301 246.937 403.474 247.038 406.884C247.372 418.339 246.2 429.584 247.626 440.959ZM219.742 242.809C221.918 244.772 228.865 230.913 231.255 230.992C236.334 231.161 229.118 244.787 228.676 246.453C230.707 245.68 232.629 240.769 233.715 238.866C234.647 237.234 238.071 229.224 240.027 228.729C243.842 227.766 242.15 235.172 241.616 236.909C240.416 240.817 239.242 244.683 238.194 248.643C240.423 247.344 242.076 239.571 243.076 237.032C244.458 233.521 245.566 229.672 247.722 226.602C249.193 224.507 251.614 221.552 254.27 221.404C257.498 221.225 258.712 224.898 261.621 225.585C262.009 217.757 261.287 209.889 262.145 202.084C256.403 202.212 250.63 202.496 244.961 203.54C241.769 204.128 239.65 204.105 238.077 207.293C236.859 209.764 235.906 212.346 234.755 214.853C230.33 224.49 225.599 234.06 219.742 242.809ZM147.104 213.592C142.912 218.185 139.122 222.936 135.172 227.754C131.213 232.583 125.706 235.681 121.966 240.668C118.548 245.226 115.982 250.472 112.724 255.178C109.117 260.388 106.132 266.223 103.06 271.814C106.226 272.432 107.006 272.502 109.057 269.99C110.755 267.912 112.145 265.41 113.858 263.314C117.842 258.439 121.683 254.47 126.661 250.651C131.527 246.919 137.795 243.652 143.614 241.753C145.884 241.013 146.718 241.2 147.975 238.984C148.876 237.396 149.205 235.408 150.12 233.782C152.095 230.272 155.216 228.301 158.317 226.075C154.812 221.668 150.611 218.068 147.104 213.592ZM427.058 79.8564C425.908 80.7749 425.754 84.2245 425.226 85.6574C424.256 88.2894 422.881 90.7593 421.675 93.2728C419.561 97.6852 417.804 102.625 417.882 107.687C417.961 112.889 421.739 115.877 426.278 116.82C431.267 117.857 435.096 115.763 439.48 113.524C443.831 111.301 447.421 107.788 450.882 104.241C453.62 101.434 455.367 96.8619 458.471 95.2871C461.419 93.7913 465.037 92.4688 465.924 88.0306C466.53 84.9986 465.376 85.3542 462.886 86.0009C460.236 86.688 458.317 88.5063 455.858 89.4828C457.227 86.1525 457.555 83.419 455.87 80.1556C454.9 78.276 453.08 75.1658 450.875 75.0908C449.422 75.0416 447.685 76.7374 446.346 77.2833C444.706 77.9502 442.89 78.2574 441.203 78.7541C436.202 80.229 432.194 80.512 427.058 79.8564ZM436.911 289.615C438.589 289.913 443.992 269.493 444.734 266.595C446.775 258.616 448.66 249.941 448.094 241.618C447.498 232.841 444.961 225.133 442.361 216.887C440.165 209.929 439.207 202.124 438.409 194.815C437.493 186.422 440.669 178.882 442.974 171.003C444.038 167.363 444.599 163.638 445.534 159.977C446.518 156.125 448.256 152.632 449.137 148.693C450.769 141.387 452.574 134.208 454.092 126.857C455.535 119.864 459.479 111.541 458.259 104.439C456.206 107.091 453.724 109.403 451.695 112.007C449.626 114.665 450.345 114.873 450.596 118.557C451.009 124.641 449.811 131.708 448.484 137.619C445.716 149.942 440.823 161.133 437.252 173.089C435.417 179.236 434.687 186.166 432.091 191.968C429.763 197.17 426.542 201.794 424.074 206.821C421.367 212.331 418.199 217.533 415.24 222.892C413.838 225.431 412.381 227.917 411.136 230.55C410.088 232.77 408.927 238.122 406.874 238.982C414.101 246.362 419.633 253.921 424.614 263.189C428.948 271.255 435.653 280.309 436.911 289.615ZM451.948 165.029C458.769 169.494 462.187 176.054 466.373 183.093C470.55 190.117 474.46 197.306 478.177 204.617C485.571 219.16 491.012 233.605 495.098 249.597C496.941 256.81 499.623 263.814 501.539 270.876C503.308 277.401 503.883 284.041 506.429 290.293C507.133 292.02 507.676 295.838 509.541 296.447C511.738 297.166 517.633 293.948 519.855 293.355C527.072 291.433 534.598 291.045 541.998 291.928C542.431 289.206 539.504 283.838 538.592 281.186C537.085 276.803 535.73 272.13 533.71 267.986C530.229 260.85 526.205 253.909 522.178 247.185C517.911 240.061 514.402 232.418 510.039 225.47C508.026 222.264 505.147 217.938 503.823 214.373C503.169 212.612 502.964 211.932 502.175 210.438C501.487 209.132 500.682 207.845 499.954 206.554C490.781 190.282 484.005 173.767 478.107 156.029C474.879 146.32 472.18 136.546 469.625 126.609C467.224 117.27 466.769 107.64 464.102 98.3327C462.533 99.4552 459.901 99.2979 459.949 101.523C459.958 101.96 462.159 105.075 462.4 105.68C462.887 106.908 463.187 108.206 463.409 109.515C464.492 115.874 462.317 122.043 461.55 128.288C460.806 134.333 460.137 139.282 458.206 144.953C456.116 151.093 452.694 158.592 451.948 165.029ZM294.875 202.606C301.542 208.794 307.719 215.739 315.61 219.92C319.317 221.883 322.264 224.665 326.465 225.448C330.682 226.234 335.032 225.789 339.264 225.468C343.59 225.14 347.505 225.086 351.489 223.187C353.204 222.371 355.811 221.581 357.275 220.332C358.725 219.094 359.638 217.088 360.915 215.596C366.148 209.477 371.937 204.594 378.801 200.902C386.453 196.784 390.687 192.109 391.262 182.689C391.904 172.142 391.057 161.39 392.513 150.909C393.836 141.398 396.479 131.233 400.485 122.618C402.543 118.189 405.08 114.008 407.972 110.15C409.262 108.429 410.982 107.279 412.311 105.688C413.882 103.806 413.645 103.296 413.645 100.488C406.958 105.461 399.444 107.341 391.625 109.55C383.696 111.791 375.162 113.217 369.01 119.459C365.705 122.812 364.003 123.832 359.533 124.311C354.952 124.804 350.327 125.044 345.77 125.825C337.409 127.26 329.396 130.051 321.365 132.816C305.144 138.404 290.963 147.746 276.899 157.613C270.592 162.038 265.011 167.425 259.294 172.632C252.377 178.932 243.078 187.373 239.636 196.616C249.113 195.702 258.736 192.781 267.934 197.201C268.632 188.984 273.853 180.99 278.946 175.097C283.463 169.872 288.985 164.65 294.512 160.446C307.737 150.387 325.373 147.78 340.769 144.16C349.091 142.203 356.849 140.677 364.751 137.339C366.753 136.494 372.591 132.712 373.693 134.965C374.397 136.405 372.591 138.474 372.142 139.643C371.364 141.661 370.922 143.76 370.471 145.893C368.44 155.515 367.175 165.32 365.209 174.967C364.92 176.387 364.535 182.813 362.143 181.939C360.548 181.358 362.027 171.547 361.911 169.774C341.614 184.611 317.605 193.342 294.875 202.606ZM317.689 368.225C313.179 368.432 308.585 371.023 304.212 372.202C298.318 373.792 292.132 375.41 286.675 378.26C283.771 379.777 283.744 380.664 284.539 384.123C285.164 386.841 285.884 389.473 286.41 392.24C287.714 399.107 289.172 405.888 290.796 412.675C307.595 397.71 329.04 389.247 349.997 383.482C352.961 382.666 355.981 382.415 358.987 381.857C361.62 381.369 364.619 381.717 367.116 381.164C368.719 380.809 370.169 379.656 371.808 379.25C375.354 378.373 379.58 378.302 382.993 376.956C387.558 375.154 392.666 372.772 397.183 370.318C402.115 367.636 406.084 365.677 407.087 359.91C407.883 355.336 409.881 351.063 410.501 346.574C411.309 340.719 410.306 335.517 409.968 329.665C409.186 316.123 407.34 302.434 404.114 289.225C401.02 276.56 398.813 263.594 396.681 250.755C396.265 248.253 395.435 245.948 394.891 243.488C393.985 239.398 392.184 240.447 388.704 240.687C382.196 241.135 375.314 238.365 369.91 234.624C367.358 232.859 364.132 228.822 361.214 227.955C358.614 227.181 355.961 230.929 353.479 232.186C347.549 235.186 340.278 235.998 333.806 236.471C319.688 237.504 308.988 227.696 299.368 217.719C292.91 225.428 285.911 232.758 278.413 239.308C272.233 244.706 266.981 251.716 261.838 258.143C257.006 264.182 253.098 273.576 246.536 277.807C242.709 280.275 239.856 278.713 236.161 276.232C233.228 274.261 229.995 273.187 227.041 271.369C213.408 262.971 200.534 253.487 187.214 244.584C184.301 242.638 179.722 238.058 176.294 237.729C173.754 237.484 173.954 238.162 172.485 240.407C171.061 242.582 169.618 244.742 168.205 246.925C162.667 255.482 156.763 264.315 152.275 273.556C162.046 271.069 171.284 270.686 180.9 272.156C189.746 273.508 201.04 275.14 208.871 280.244C212.217 282.425 215.501 284.874 218.838 287.352C223.027 290.463 226.279 294.814 230.916 297.16C234.915 299.183 239.243 300.099 243.399 301.607C248.07 303.3 254.696 306.456 259.656 305.085C263.883 303.917 267.422 299.916 270.603 297.159C274.743 293.574 279.774 291.122 283.963 287.78C291.387 281.857 299.136 276.796 307.12 271.503C316.654 265.181 325.8 257.916 335.696 252.351C337.642 251.256 339.566 250.497 341.377 249.189C343.079 247.96 344.305 245.71 346.354 247.314C348.175 248.738 347.38 251.363 346.828 253.19C346.312 254.903 345.834 255.451 346.167 256.945C346.477 258.336 348.482 260.47 349.17 261.829C352.423 268.25 354.746 275.142 357.862 281.636C360.894 287.951 364.316 294.027 367.135 300.461C372.701 313.163 380.473 324.418 385.401 337.527C383.131 338.52 382.849 336.476 381.088 336.283C379.163 336.071 379.86 336.462 377.949 337.933C375.386 339.906 372.637 341.153 369.887 342.693C363.764 346.12 357.494 350.152 350.886 352.521C339.537 356.589 329.077 363.78 317.689 368.225ZM512.973 308.925C512.581 311.931 512.077 314.914 511.666 317.914C511.377 320.036 510.265 323.109 510.517 325.208C513.441 323.734 516.587 318.794 518.845 324.198C520.19 327.416 518.504 333.804 518.107 337.267C521.411 336.552 520.665 327.888 525.945 330.684C530.005 332.834 527.164 343.76 530.338 344.825C532.53 341.134 532.169 332.761 532.887 328.368C533.223 326.309 532.742 323.543 535 323.409C536.955 323.293 538.503 326.318 539.429 327.701C540.311 322.681 542.689 318.225 541.651 313.603C541.009 310.744 540.352 307.882 539.665 305.034C539.261 303.358 538.831 298.212 537.465 297.059C534.923 294.914 525.636 298.733 522.828 299.595C520.266 300.381 517 301.126 514.642 302.451C512.165 303.843 512.925 305.848 512.973 308.925ZM430.678 136.13C434.481 135.685 437.778 133.225 440.696 130.66C445.479 126.456 446.205 123.164 447.115 116.687C440.98 119.879 436.448 122.519 429.527 122.652C421.604 122.804 417.709 117.845 414.066 111.022C413.089 112.612 411.693 114.299 410.98 116.041C410.079 118.243 410.193 117.786 410.454 120.02C410.858 123.47 412.467 127.89 414.104 130.917C417.635 137.453 424.578 138.337 430.678 136.13ZM274.071 398.703H281.265C280.852 395.889 280.44 393.077 280.028 390.263C279.668 387.808 280.265 384.354 278.005 383.927C276.133 383.573 274.275 385.787 272.371 385.589C270.197 385.363 268.947 383.699 266.427 384.368C262.841 385.323 263.558 389.515 263.504 393.033C263.484 394.415 262.985 396.493 263.39 397.837C264.095 400.181 263.506 399.245 265.689 399.474C268.252 399.742 271.432 398.855 274.071 398.703ZM452.401 59.8722C455.036 60.3198 461.861 66.3062 463.787 64.8782C466.403 62.9405 458.884 57.587 457.343 56.7443C449.814 52.6254 435.732 55.8799 430.671 63.4001C433.988 63.7444 438.041 60.5012 441.443 59.9682C445.089 59.3973 448.739 59.8819 452.401 59.8722ZM450.564 214.801C452.71 224.029 456.562 233.918 456.539 243.511C456.515 253.483 454.452 262.532 450.672 271.662C448.781 276.23 447.087 280.848 444.939 285.289C443.944 287.346 443.029 289.866 441.653 291.66C439.956 293.873 439.43 293.709 437.411 291.952C436.509 294.415 435.563 296.953 432.497 295.298C430.289 294.105 430.336 291.15 429.613 288.953C427.675 283.064 423.534 277.986 420.61 272.621C417.612 267.121 415.081 261.204 411.764 255.917C410.167 253.371 408.264 251.001 406.559 248.529C405.265 246.656 403.29 242.323 401.494 241.224C401.256 243.694 403.724 247.29 404.635 249.702C405.832 252.87 406.86 256.126 407.723 259.413C409.401 265.798 410.414 272.471 411.692 278.961C413.976 290.565 416.67 302.094 418.198 313.871C419.62 324.827 419.999 336.148 418.918 347.153C418.455 351.88 415.859 355.877 414.108 360.183C411.729 366.035 408.839 369.684 404.06 373.836C395.382 381.375 385.775 385.886 375.206 389.251C373.234 389.879 371.402 389.606 369.553 390.032C367.477 390.508 365.826 391.637 363.57 392.014C357.748 392.986 351.826 394.128 346.205 395.89C341.775 397.28 337.399 398.726 333.016 400.17C329.676 401.269 325.561 402.292 322.345 403.913C314.414 407.912 306.975 412.605 299.615 417.576C297.457 419.035 295.866 419.917 294.274 422.074C292.553 424.408 292.802 426.058 291.863 428.72C290.988 431.204 289.46 432.603 287.383 430.538C285.443 428.608 286.209 424.535 286.052 422.146C285.814 418.544 283.815 404.773 281.493 403.622C279.816 402.79 274.913 404.578 272.879 404.817C270.244 405.125 267.87 405.118 265.246 404.734C266.113 408.59 262.945 413.804 261.615 417.194C259.346 422.975 257.58 428.607 256.639 434.76C255.999 438.955 256.205 443.167 255.601 447.411C254.978 451.792 255.922 458.661 250.349 459.318C241.502 460.362 239.246 441.467 238.24 435.131C236.661 425.194 237.91 415.403 238.842 405.413C238.918 404.603 239.303 401.044 238.96 400.398C238.68 399.872 236.193 398.963 235.872 398.721C233.069 396.593 234.21 395.461 235.045 392.292C236.64 386.236 236.177 378.669 240.009 373.374C242.941 369.323 249.522 371.784 253.314 372.877C256.139 373.693 258.931 374.789 261.677 375.875C263.576 376.626 265.696 378.872 267.358 379.234C270.674 379.957 273.118 375.437 275.591 373.835C280.054 370.948 284.709 368.292 289.518 366.356C298.353 362.798 307.497 360.755 316.562 357.76C322.112 355.927 327.593 353.924 332.865 351.275C336.761 349.318 340.69 346.564 344.904 345.238C350.213 343.568 355.601 341.247 360.783 338.939C366.294 336.485 372.324 334.912 377.981 332.923C366.205 314.52 356.142 294.835 348.054 274.272C347.122 271.902 346.226 269.517 345.4 267.101C344.98 265.872 343.947 260.358 342.852 259.58C340.862 258.168 332.865 264.57 330.638 266.129C322.566 271.774 314.824 277.944 306.414 283.075C299.131 287.518 292.26 292.672 285.295 297.438C281.46 300.062 277.892 303.409 273.992 306.059C270.103 308.702 265.525 313.624 260.917 314.766C259.198 315.192 256.285 314.671 254.547 314.52C252.098 314.308 249.363 314.073 246.98 313.346C242.31 311.923 237.374 310.306 232.81 308.534C224.605 305.349 218.245 297.491 210.848 292.639C201.933 286.791 191.833 285.334 181.869 282.101C170.967 278.565 158.875 278.18 147.368 279.098C147.368 267.891 152.436 259.484 157.967 250.286C153.984 247.494 152.303 245.755 147.845 248.338C144.537 250.254 141.488 251.977 138.42 254.119C135.088 256.446 131.541 258.231 128.223 260.783C124.616 263.556 121.46 266.499 118.129 269.603C115.625 271.938 112.772 274.06 110.152 276.17C107.564 278.255 104.929 277.953 101.62 276.533C100.645 276.113 97.597 274.65 97.0813 273.946C96.0416 272.525 96.8107 271.534 97.6739 269.661C99.6712 265.325 102.223 260.924 104.829 256.96C107.156 253.423 110.175 250.468 112.611 247.018C114.924 243.745 116.578 239.943 119.257 236.976C122.254 233.657 125.807 230.994 128.636 227.458C130.046 225.694 131.654 223.814 131.765 221.733C131.851 220.136 130.186 218.589 130.17 217.444C130.135 214.754 134.451 212.019 136.253 210.041C138.898 207.135 141.512 204.625 145.598 205.871C148.598 206.786 153.111 210.823 155.347 213.168C158.159 216.121 160.49 219.539 163.391 222.46C165.021 224.103 166.76 225.602 168.445 227.176C169.442 228.107 171.021 230.777 172.124 231.321C173.109 231.809 174.071 231.348 175.449 231.308C174.828 231.325 177.969 231.89 177.802 231.841C179.288 232.266 180.756 232.727 182.221 233.232C188.243 235.309 193.791 238.814 199.225 242.304C213.027 251.167 225.978 260.613 239.496 270.061C243.5 272.858 244.601 272.66 247.675 268.654C250.544 264.918 252.922 260.765 255.617 256.891C260.058 250.508 265.065 244.3 270.308 238.628C275.705 232.79 281.927 227.903 287.695 222.502C289.297 221.002 295.9 215.937 295.483 214.038C295.248 212.966 293.113 211.156 292.437 210.058C291.428 208.421 290.382 206.574 289.638 204.768C285.256 194.139 296.629 193.411 303.283 190.126C311.407 186.115 319.449 181.684 327.753 178.103C331.922 176.306 336.097 174.664 340.306 172.997C344.181 171.463 347.709 168.975 351.523 167.282C354.331 166.034 360.433 165.559 362.305 162.905C363.409 161.34 362.934 156.396 363.127 154.573C363.448 151.546 363.921 148.537 364.662 145.594C363.27 145.326 360.657 146.958 359.391 147.586C356.953 148.794 354.831 149.983 352.126 150.743C346.34 152.367 340.281 152.552 334.58 154.315C325.903 156.999 316.65 158.552 308.163 162.404C298.39 166.838 289.976 174.638 283.111 183.058C279.568 187.403 276.75 191.581 274.332 196.739C273.706 198.075 272.963 202.552 272 203.485C270.774 204.672 267.538 203.422 266.145 203.177C266.145 207.128 266.222 211.085 266.089 215.029C265.948 219.192 266.652 225.578 265.302 229.419C264.036 233.024 261.673 232.278 259.17 230.485C255.843 228.103 254.137 226.736 251.155 230.428C245.968 236.849 244.005 246.824 240.447 254.34C239.282 256.802 236.409 261.956 234.837 256.896C233.693 253.208 235.591 248.505 234.704 244.862C233.492 247.135 229.867 253.897 226.998 253.878C223.052 253.853 224.34 247.311 224.471 244.645C222.145 247.296 215.315 255.96 213.663 249.015C212.393 243.685 215.937 238.395 218.454 234.199C221.382 229.316 224.261 224.358 227.299 219.559C230.273 214.862 232.263 209.539 235.278 204.813C232.98 205.152 228.532 204.351 229.945 200.553C230.685 198.568 233.023 199.403 234.164 198.17C235.353 196.886 235.993 193.242 236.659 191.56C239.937 183.271 244.639 176.457 250.075 169.717C259.682 157.807 271.948 148.298 284.314 140.322C299.048 130.819 314.238 125.04 330.737 120.394C338.555 118.194 346.484 117.182 354.387 115.596C357.667 114.938 360.995 114.567 363.591 112.348C367.461 109.039 370.013 106.589 374.678 104.477C378.448 102.771 382.025 101.984 386.137 101.255C390.543 100.473 395.6 101.513 399.834 100.185C403.353 99.0802 407.454 96.6821 410.65 94.7629C412.261 93.7969 415.112 93.2526 415.98 92.4309C417.658 90.8456 418.769 86.8928 419.84 84.764C417.189 85.505 416.18 83.4948 415.47 81.0595C414.291 77.01 414.278 78.3558 410.595 76.66C408.414 75.6553 407.709 72.9741 405.98 72.0226C404.126 71.0009 401.185 73.2039 398.995 72.4879C397.22 71.9065 395.484 69.8696 395.581 67.7013C395.621 66.7965 396.515 65.9934 396.53 65.2564C396.569 63.5291 395.247 62.5752 395.44 60.6818C395.74 57.7515 397.134 58.2466 395.95 55.0711C394.771 51.9102 395.231 51.2869 395.585 48.0106C395.684 47.105 395.247 45.6463 395.84 44.8762C396.185 44.4263 397.45 44.3569 397.578 44.1295C398.061 43.2804 398.076 42.5829 398.173 41.0258C398.229 40.1388 397.972 38.3648 398.837 37.7084C399.588 37.1383 400.653 38.1979 401.31 37.8625C401.881 37.5714 402.375 36.1207 403.312 35.9457C406.774 35.299 405.718 39.0591 407.486 34.3661C408.51 31.6478 409.296 30.535 411.134 28.9892C411.932 29.3827 412.43 29.2238 412.628 28.511C412.896 27.9958 413.166 27.4813 413.436 26.9668C414.868 26.6048 415.074 27.7506 416.183 26.6249C418.044 24.7356 416.129 20.5514 419.889 21.6714C422.617 22.4834 423.28 26.2169 426.133 27.1136C426.526 25.8976 426.475 22.3431 428.132 21.9835C429.819 21.6174 431.103 24.8993 431.717 25.971C432.115 25.0493 432.776 22.2891 433.433 21.6142C435.322 19.6749 434.751 21.5537 436.422 21.8117C436.684 22.1399 436.948 22.4689 437.21 22.7979C438.084 22.3423 438.945 21.8617 439.792 21.3529C441.625 20.9828 440.972 21.1852 442.57 21.8754C443.848 22.4278 443.084 23.0592 444.637 23.4067C445.765 23.6575 446.719 22.4076 447.975 22.7907C448.34 22.9608 448.706 23.1317 449.071 23.3019C449.588 24.5268 450.382 24.7437 451.453 23.9518C452.715 24.5074 454.418 26.7402 455.762 26.6669C458.33 26.5241 457.726 22.7495 460.542 22.9342C461.587 23.0019 464.287 26 465.031 26.8902C466.076 28.1393 465.78 29.2182 467.088 30.6229C468.984 32.6574 467.872 31.5663 469.681 32.4872C472.378 33.8605 473.372 33.3412 474.482 36.6465C475.449 39.5212 475.99 43.0974 476.001 46.143C476.007 48.0436 474.727 52.2351 477.197 51.3159C478.931 50.6708 478.64 46.0818 480.501 47.5211C481.916 48.6146 479.124 54.4615 479.092 55.8331C478.998 59.7795 479.589 60.0956 477.297 63.0445C476.212 64.4411 473.724 67.015 473.173 68.8245C472.52 70.9646 474.252 74.6715 474.651 76.5834C475.517 80.733 474.785 81.6095 472.218 84.8704C471.943 85.0462 471.668 85.2228 471.392 85.3986C470.021 85.3954 469.64 86.1251 470.25 87.5863C469.704 89.2159 469.77 90.7867 468.998 92.4245C468.576 93.3195 466.711 95.1314 466.616 96.0168C466.448 97.5957 467.182 97.8723 468.427 99.5092C473.447 106.109 475.746 114.66 478.229 122.598C482.603 136.58 487.994 150.217 493.215 163.901C495.25 169.235 497.312 174.358 499.424 179.752C502.052 186.466 505.746 192.597 508.87 199.104C511.029 203.602 513.233 208.54 515.931 212.421C519.327 217.303 521.234 223.578 524.211 228.863C527.392 234.508 531.105 240.07 534.172 245.879C537.105 251.435 540.729 256.521 543.514 262.227C546.99 269.351 551.039 277.911 551.996 285.984C552.335 288.845 553.389 293.564 551.725 296.012C550.003 298.546 545.262 299.606 542.856 297.714C545.262 303.693 546.758 310.393 547.837 316.787C548.303 319.55 548.953 321.988 548.383 324.811C547.873 327.334 548.719 325.865 546.81 327.341C545.212 328.576 545.951 325.094 544.695 328.644C544.43 329.393 544.95 331.47 544.931 332.34C544.858 335.829 544.615 339.382 544.487 342.891C544.391 345.554 544.793 347.799 541.729 347.518C539.272 347.292 538.056 344.508 536.966 342.543C536.557 345.671 536.322 348.794 535.984 351.932C535.684 354.715 536.283 357.465 532.944 357.165C527.47 356.672 525.312 346.082 523.925 341.656C521.431 345.164 520.218 352.129 519.121 356.419C518.077 360.502 516.86 369.193 511.522 363.846C507.967 360.283 509.344 353.275 509.982 348.716C510.192 347.212 513.195 333.998 511.791 333.236C509.784 335.529 507.447 339.274 504.142 337.253C501.171 335.437 502.138 331.401 502.375 328.488C503.047 320.202 505.711 312.259 507.686 304.23C506.562 303.961 503.831 303.722 502.905 302.83C501.719 301.686 502.45 301.13 501.929 299.668C501.225 297.688 499.96 295.677 498.961 293.797C495.706 287.669 494.703 281.561 493.021 274.893C491.397 268.453 488.338 262.784 486.715 256.261C484.916 249.035 483 241.934 480.878 234.736C476.244 219.013 469.569 204.042 461.896 189.781C460.888 187.909 452.633 167.684 451.389 168.282C450.503 168.708 449.995 173.942 449.656 175.356C448.872 178.631 448.718 182.074 448.534 185.449C445.509 193.322 448.729 206.907 450.564 214.801Z" fill="black"/>
<path fill-rule="evenodd" clip-rule="evenodd" d="M171.574 188.148C174.655 188.933 175.758 181.264 176.103 178.89C176.661 175.041 177.301 171.731 179.243 168.365C180.188 166.728 181.317 165.045 182.542 163.634C183.257 162.812 185.048 161.742 185.422 160.86C186.457 158.422 185.255 152.293 185.268 149.55C185.278 147.788 184.199 139.591 186.136 139.019C188.652 138.275 189.308 145.751 189.586 147.434C189.904 149.361 189.852 151.218 190.044 153.125C190.222 154.905 191.13 156.007 191.477 157.193C192.471 160.582 190.111 163.428 188.42 166.481C186.537 169.879 184.5 173.18 183.179 176.89C181.745 180.915 181.837 185.154 180.716 189.229C178.894 195.851 171.25 199.461 165.06 197.519C161.768 196.486 162.461 194.111 161.418 191.376C161.023 190.337 159.914 189.76 159.583 188.381C159.234 186.921 159.554 185.021 159.822 183.547C161.125 176.409 163.237 168.936 165.278 161.992C154.169 168.525 142.404 172.828 129.611 172.583C123.253 172.461 118.621 171.004 114.014 176.805C110.445 181.3 110.45 189.206 108.993 194.796C107.412 200.865 105.986 208.638 102.387 213.715C98.0444 219.844 92.1159 218.835 91.6733 210.663C91.2956 203.696 94.5415 197.094 93.9971 190.021C93.7234 186.463 92.4107 183.328 92.4914 179.723C92.5607 176.627 93.13 173.718 93.6668 170.669C87.3131 171.491 82.3918 174.279 77.8778 178.956C73.651 183.335 71.8882 188.741 68.398 193.749C65.2132 198.318 62.3948 204.606 56.1081 204.449C48.0835 204.251 47.5784 193.702 50.5875 188.065C52.1256 185.183 54.2624 182.927 56.2175 180.389C58.3821 177.58 58.6377 175.323 59.0841 171.734C59.4234 168.998 59.5169 165.382 61.8233 163.578C63.8975 161.953 66.5017 162.743 68.4206 160.59C70.2566 158.531 71.7057 155.415 73.3546 153.14C75.4138 150.298 77.5453 147.363 79.3767 144.347C83.317 137.853 88.4953 133.336 93.9533 128.256C91.9742 126.939 86.7559 128.394 84.3047 127.978C80.2777 127.292 75.0662 125.245 71.9462 122.301C65.4695 116.189 62.3571 108.238 62.0382 99.0496C61.7313 90.2243 63.0282 79.58 69.1708 73.0216C72.3013 69.6784 76.3095 66.7525 80.2649 64.6209C82.8985 63.2022 88.3226 60.1079 91.368 61.3856C98.3988 64.3381 82.4974 76.0805 80.4006 77.9591C73.7203 83.9447 69.8298 89.7216 69.9851 99.2961C70.1352 108.606 78.5367 113.031 85.5638 116.111C89.2086 117.709 93.611 118.99 97.6825 118.874C102.296 118.742 105.434 115.913 109.637 114.254C117.909 110.988 126.395 108.792 134.922 106.592C143.318 104.424 152.452 104.913 161.05 103.498C169.133 102.167 176.686 100.526 184.327 97.3876C192.239 94.1379 198.342 84.4449 206.971 83.4251C212.323 82.7935 209.707 86.8384 207.395 88.9128C204.628 91.3948 201.623 93.557 198.854 96.0471C191.802 102.389 184.413 106.119 175.475 108.537C168.982 110.292 161.981 111.934 155.081 112.982C146.369 114.304 137.601 113.891 129.044 116.3C123.977 117.726 119.056 119.541 114.276 121.858C112.318 122.807 108.268 124.328 107.906 126.015C107.435 128.2 109.073 128.156 107.099 130.169C103.774 133.56 99.4491 135.957 96.0909 139.475C92.3504 143.394 88.7924 147.195 85.7621 151.791C82.7568 156.35 80.3568 160.769 75.9061 163.913C74.4306 164.955 71.9259 166.783 70.249 167.262C68.7056 167.704 68.0006 167.028 66.6797 167.945C63.1661 170.382 65.2712 177.992 64.3438 181.76C63.1578 186.585 60.1208 190.208 58.2298 194.684C60.8755 194.073 62.7228 189.395 64.083 187.189C65.6075 184.714 67.5385 183.047 69.4784 180.908C73.5575 176.412 74.6372 170.263 79.486 166.03C88.2699 158.362 101.924 159.024 109.252 148.745C110.439 147.08 111.554 142.267 112.978 141.22C115.587 139.302 115.366 145.034 115.098 146.735C114.18 152.543 110.825 159.408 106.438 163.074C104.453 164.735 101.676 165.494 99.9535 167.649C99.5313 167.827 99.1106 168.007 98.6883 168.186C98.9402 169.143 99.0774 170.116 99.0977 171.104C99.1377 172.832 98.7456 174.516 98.68 176.258C98.5164 180.643 99.425 184.391 100.248 188.591C100.836 191.591 99.2523 197.845 100.514 200.291C103.009 191.355 105.942 181.035 110.667 173.093C111.783 171.215 113.998 169.664 114.877 167.73C115.295 167.234 115.712 166.738 116.13 166.243C115.398 165.518 114.76 164.711 114.217 163.82C111.383 157.463 117.591 161.394 120.068 161.933C124.05 162.801 129.012 161.018 133.147 160.885C137.176 160.754 141.149 160.611 145.088 159.943C149.341 159.223 153.754 158.133 157.916 156.943C162.093 155.746 165.954 153.284 170.015 152.202C165.955 149.24 164.671 145.383 163.266 140.567C162.343 137.401 159.064 129.717 161.128 126.503C163.365 123.018 164.163 128.378 164.888 130.277C166.116 133.487 167.974 138.964 170.248 141.373C171.474 142.672 173.129 142.529 174.225 144.261C175.03 145.536 175.14 147.297 175.265 148.774C175.639 153.136 174.023 156.629 172.582 160.6C169.222 169.86 167.864 179.763 163.468 188.573C166.142 188.846 168.909 188.436 171.574 188.148Z" fill="black"/>
<path fill-rule="evenodd" clip-rule="evenodd" d="M227.807 115.192C229.952 114.654 236.702 113.867 234.744 109.669C232.762 105.423 227.487 112.29 227.807 115.192ZM291.708 81.7607C290.449 81.3432 288.45 80.3705 287.101 80.4736C285.503 80.5961 284.315 81.8324 282.694 81.996C279.385 82.3296 276.826 80.8226 274.664 84.5942C279.264 84.5942 288.466 86.2592 291.708 81.7607ZM204.923 169.728C209.3 170.38 211.475 149.739 211.707 147.035C209.744 146.821 204.451 150.937 203.989 152.834C203.482 154.917 205.228 158.259 205.44 160.424C205.754 163.63 205.421 166.572 204.923 169.728ZM229.318 51.9074C224.047 52.4555 218.149 54.2768 213.312 51.1475C209.389 48.6113 207.937 43.2601 204.633 40.1186C204.633 49.1786 212.265 56.3174 220.03 59.192C223.984 60.6556 230.043 58.4482 233.536 60.8337C234.549 61.5251 236.709 64.6754 236.788 65.977C237.059 70.4127 234.097 66.4428 232.42 66.5798C230.088 66.77 226.843 73.3301 224.9 75.3247C223.438 76.8253 221.788 78.043 220.137 79.3325C219.593 79.758 216.796 81.2682 216.657 81.9984C216.534 82.6463 218.067 85.0278 218.39 85.6419C220.614 89.8713 223.292 92.9023 226.807 95.8858C228.538 97.3558 230.342 98.1746 232.078 99.3955C232.644 99.7952 234.947 103.144 234.278 103.003C235.246 99.8653 238.001 96.2315 239.835 93.4576C241.714 90.6135 244.191 87.6341 247.342 86.4825C248.726 85.9764 251.017 85.542 252.458 85.4179C253.47 85.38 254.472 85.4686 255.464 85.6838C256.908 86.364 257.473 85.8168 257.158 84.0398C258.676 80.6759 257.782 76.4409 259.711 73.0238C261.975 69.012 265.679 67.1947 269.923 67.6468C271.83 67.8499 273.884 68.7235 275.772 68.3673C277.644 68.0143 279.764 66.4025 281.595 65.7078C288.708 63.008 297.485 59.7272 303.061 54.1027C303.908 53.2501 306.298 50.8839 306.485 49.6582C305.988 48.4622 305.491 47.2678 304.993 46.0727C304.863 44.3206 304.065 43.8427 302.598 44.6398C300.871 44.6011 297.596 46.7166 295.867 47.3218C293.673 48.0907 291.465 48.7668 289.306 49.6348C285.558 51.141 281.91 52.6884 277.975 53.5845C273.901 54.5113 271.961 55.0763 269.817 50.9557C267.72 46.9277 268.018 44.5721 263.137 45.1612C258.787 45.685 255.141 47.4371 251.13 49.2858C248.467 50.5132 244.997 52.7738 242.288 53.2582C240.281 53.6176 238.114 52.7827 236.18 52.3523C233.737 51.8099 231.802 51.905 229.318 51.9074ZM279.848 75.3005H282.039C280.341 74.2351 278.642 73.1689 276.943 72.1035C274.552 76.2233 268.575 74.4317 264.952 76.8865C261.977 78.9029 259.184 87.4955 262.04 90.6248C266.011 94.9743 267.966 85.3236 269.093 83.1001C271.387 78.5749 274.841 75.1861 279.848 75.3005ZM210.405 84.5241C208.627 80.9427 209.793 77.5192 212.431 75.6188C216.237 72.8779 220.069 69.8751 223.801 66.8385C217.457 65.7763 212.911 63.5367 207.738 59.4064C201.771 54.6403 200.072 50.236 200.24 42.1858C200.324 38.145 199.794 26.66 205.904 29.994C210.952 32.7486 211.648 40.4515 217.079 43.0626C222.443 45.6415 228.763 42.9667 234.405 44.975C236.01 45.5472 240.306 49.5719 241.611 49.5534C243.344 49.5276 247.697 45.4384 249.336 44.4673C253.449 42.0319 258.767 39.6569 263.348 38.9549C266.225 38.5141 267.162 38.1982 269.247 40.462C271.582 42.9965 272.314 46.1299 273.147 49.4228C282.005 45.5295 290.952 41.8957 300.06 38.7212C302.953 37.713 304.939 36.4236 307.407 34.7989C310.94 32.473 312.906 33.5497 313.548 38.3585C314.68 46.8302 309.83 52.2483 305.616 58.5892C303.292 62.0861 301.704 64.5562 297.926 66.342C293.993 68.2005 289.259 67.6017 284.988 68.9983C286.084 70.4232 286.663 73.7411 287.628 74.7428C288.413 75.5568 292.17 75.4214 293.437 76.1322C297.234 78.263 296.782 81.8195 294.43 85.3365C291.775 89.3031 287.852 90.0341 283.564 90.3798C281.644 90.5338 279.933 90.562 278.012 90.4169C276.769 90.3234 272.442 88.8897 271.505 89.3144C270.395 89.8165 270.137 92.4301 269.632 93.6236C268.829 95.5207 267.936 97.4404 266.047 98.3172C264.412 99.0748 262.569 98.8701 261.082 97.8296C259.09 96.4362 259.636 94.7914 258.382 93.0022C258.263 91.118 257.511 90.761 256.124 91.9296C255.065 92.3253 254.007 92.725 252.951 93.1288C250.766 93.9782 248.726 94.7978 246.803 96.2251C243.119 98.9579 240.889 103.568 236.784 105.49C239.462 110.377 237.789 117.026 233.282 119.563C232.266 120.135 231.021 120.837 229.942 121.208C229.137 121.485 227.033 121.261 226.489 121.74C225.702 122.436 225.269 129.019 224.718 130.486C222.823 135.529 218.799 138.039 216.417 142.613C214.093 147.077 214.593 154.005 213.916 159.033C213.079 165.261 212.547 171.799 210.048 177.578C208.377 181.445 203.363 186.029 198.936 185.266C192.427 184.146 195.257 175.268 197.253 171.443C200.333 165.542 200.329 161.077 199.548 154.55C196.978 154.958 190.611 157.642 190.917 152.414C191.126 148.848 198.337 145.58 200.864 143.789C206.577 139.742 212.423 135.032 217.247 129.846C219.241 127.702 222.095 123.744 223.11 120.812C223.848 118.672 223.69 116.591 223.851 114.354C223.998 112.295 225.691 109.467 225.607 107.667C225.483 104.998 218.899 100.733 217.017 97.907C214.335 93.8807 212.08 89.1194 210.405 84.5241Z" fill="black"/>
<path fill-rule="evenodd" clip-rule="evenodd" d="M342.271 93.4872C344.289 93.2054 352.044 90.9115 353.376 93.0588C355.806 96.9759 348.663 97.7054 346.867 98.0605C338.931 99.6273 331.166 101.711 323.47 104.045C308.16 108.688 292.55 114.514 278.291 122.077C276.058 123.261 269.495 128.081 267.261 125.646C264.373 122.501 271.379 119.011 272.983 118.031C280.096 113.688 287.611 109.792 295.245 106.593C310.281 100.293 326.167 95.3825 342.271 93.4872Z" fill="black"/>
<path fill-rule="evenodd" clip-rule="evenodd" d="M150.909 300.258C162.298 298.445 174.672 301.121 185.725 304.812C189.266 305.995 192.958 307.368 196.199 309.296C197.946 310.333 202.098 312.18 203.086 314.121C204.735 317.358 202.89 318.737 200.237 318.205C197.714 317.699 194.615 316.15 191.982 315.443C179.926 312.203 167.942 309.774 155.732 308.477C152.811 308.166 150.689 308.528 147.873 309.076C145.769 309.485 140.212 311.927 138.63 310.495C132.912 305.322 148.188 300.58 150.909 300.258Z" fill="black"/>
<path fill-rule="evenodd" clip-rule="evenodd" d="M328.112 325.151C328.883 329.763 326.686 330.194 323.015 332.349C319.266 334.551 315.521 336.36 311.56 338.137C307.293 340.052 302.821 342.016 298.376 343.414C294.611 344.598 288.805 347.252 284.895 346.859C283.317 346.7 282.297 346.919 282.285 344.833C282.274 342.569 284.268 342.705 285.913 342.205C290.949 340.675 295.825 338.378 300.777 336.555C310.103 333.126 319.444 330.23 328.112 325.151Z" fill="black"/>
<path fill-rule="evenodd" clip-rule="evenodd" d="M45.6018 99.593C42.681 94.446 42.7397 87.5846 43.5479 81.7687C43.8202 79.8083 48.2509 65.3158 50.9279 68.3282C52.5157 70.1152 47.1109 81.4968 46.545 84.0978C45.8623 87.2336 45.5115 90.3356 45.9614 93.5408C46.084 94.4073 47.9022 99.9069 45.6018 99.593Z" fill="black"/>
<path fill-rule="evenodd" clip-rule="evenodd" d="M198.668 128.809C196.528 125.686 199.392 118.699 200.259 115.379C200.793 113.333 202.424 105.65 205.01 107.29C207.521 108.882 204.71 116.084 204.207 118.073C203.462 121.023 202.378 128.734 198.668 128.809Z" fill="black"/>
<path fill-rule="evenodd" clip-rule="evenodd" d="M435.941 295.216C436.334 294.217 436.728 293.22 437.12 292.22C438.119 293.031 439.514 293.429 438.497 294.658C437.872 295.414 436.82 295.413 435.941 295.216Z" fill="black"/>
<path fill-rule="evenodd" clip-rule="evenodd" d="M399.855 100.4C398.104 100.686 396.935 100.702 395.199 100.658C396.752 100.572 398.304 100.486 399.855 100.4Z" fill="black"/>
<path fill-rule="evenodd" clip-rule="evenodd" d="M456.61 245.62C456.606 244.377 456.601 243.134 456.597 241.892C456.601 243.136 456.606 244.378 456.61 245.62Z" fill="black"/>
<path fill-rule="evenodd" clip-rule="evenodd" d="M174.906 152.42C174.902 151.176 174.898 149.933 174.895 148.692C174.899 149.935 174.902 151.177 174.906 152.42Z" fill="black"/>
<path fill-rule="evenodd" clip-rule="evenodd" d="M229.32 43.5329C228.156 43.5249 226.992 43.518 225.828 43.51C226.998 43.0048 228.159 43.2478 229.32 43.5329Z" fill="black"/>
<path fill-rule="evenodd" clip-rule="evenodd" d="M237.2 426.429C237.186 427.258 237.171 428.087 237.155 428.914C237.17 428.084 237.185 427.256 237.2 426.429Z" fill="black"/>
<path fill-rule="evenodd" clip-rule="evenodd" d="M90.2148 128.488C90.7993 128.495 91.3824 128.501 91.9609 128.509C91.3752 128.503 90.7953 128.495 90.2148 128.488Z" fill="black"/>
<path fill-rule="evenodd" clip-rule="evenodd" d="M418.786 348.141C418.776 347.31 418.767 346.481 418.757 345.655C418.766 346.486 418.776 347.313 418.786 348.141Z" fill="black"/>
<path fill-rule="evenodd" clip-rule="evenodd" d="M448.4 185.35C448.436 184.521 448.474 183.692 448.51 182.865C448.473 183.696 448.436 184.523 448.4 185.35Z" fill="black"/>
<path fill-rule="evenodd" clip-rule="evenodd" d="M395.554 59.8404C395.512 60.6696 395.47 61.4995 395.427 62.3258C395.469 61.4959 395.511 60.6689 395.554 59.8404Z" fill="black"/>
<path fill-rule="evenodd" clip-rule="evenodd" d="M545.061 332.607C545.068 331.777 545.076 330.948 545.084 330.122C545.075 330.952 545.068 331.779 545.061 332.607Z" fill="black"/>
<path fill-rule="evenodd" clip-rule="evenodd" d="M313.457 46.171C313.435 45.3411 313.414 44.5112 313.391 43.6857C313.412 44.5165 313.435 45.3438 313.457 46.171Z" fill="black"/>
<path fill-rule="evenodd" clip-rule="evenodd" d="M70.0853 99.606C70.1184 98.7763 70.151 97.9467 70.1842 97.1206C70.1504 97.9511 70.1184 98.779 70.0853 99.606Z" fill="black"/>
<path fill-rule="evenodd" clip-rule="evenodd" d="M279.957 90.6011C280.541 90.5985 281.125 90.5952 281.703 90.5926C281.117 90.5952 280.537 90.5985 279.957 90.6011Z" fill="black"/>
<path fill-rule="evenodd" clip-rule="evenodd" d="M475.868 48.6564C475.829 47.8265 475.791 46.9983 475.753 46.171C475.792 47.0009 475.83 47.8282 475.868 48.6564Z" fill="black"/>
<path fill-rule="evenodd" clip-rule="evenodd" d="M92.2511 177.273C92.2522 178.103 92.2528 178.933 92.2528 179.758C92.2517 178.928 92.2517 178.1 92.2511 177.273Z" fill="black"/>
<path fill-rule="evenodd" clip-rule="evenodd" d="M548.635 321.423C548.588 320.594 548.541 319.765 548.493 318.938C548.541 319.768 548.588 320.595 548.635 321.423Z" fill="black"/>
<path fill-rule="evenodd" clip-rule="evenodd" d="M259.004 314.928C259.588 314.908 260.172 314.889 260.75 314.87C260.164 314.89 259.584 314.91 259.004 314.928Z" fill="black"/>
<path fill-rule="evenodd" clip-rule="evenodd" d="M448.523 202.127C448.477 201.297 448.432 200.468 448.387 199.641C448.432 200.471 448.477 201.299 448.523 202.127Z" fill="black"/>
<path fill-rule="evenodd" clip-rule="evenodd" d="M169.371 299.979C168.595 299.985 167.819 299.99 167.043 299.995C167.819 299.99 168.595 299.985 169.371 299.979Z" fill="black"/>
<path fill-rule="evenodd" clip-rule="evenodd" d="M150.746 299.87C149.97 299.948 149.194 300.026 148.418 300.104C149.194 300.026 149.971 299.948 150.746 299.87Z" fill="black"/>
<path fill-rule="evenodd" clip-rule="evenodd" d="M447.899 196.534C447.881 195.913 447.864 195.291 447.847 194.67C447.865 195.292 447.882 195.913 447.899 196.534Z" fill="black"/>
<path fill-rule="evenodd" clip-rule="evenodd" d="M474.113 75.3738C474.08 74.7515 474.048 74.13 474.016 73.5098C474.049 74.1321 474.081 74.753 474.113 75.3738Z" fill="black"/>
<path fill-rule="evenodd" clip-rule="evenodd" d="M295.956 80.9659C295.961 80.344 295.965 79.7229 295.97 79.1019C295.966 79.7245 295.961 80.3448 295.956 80.9659Z" fill="black"/>
<path fill-rule="evenodd" clip-rule="evenodd" d="M214.972 251.971C215.292 251.99 215.612 252.01 215.934 252.03C215.216 252.69 214.376 252.011 214.972 251.971Z" fill="black"/>
<path fill-rule="evenodd" clip-rule="evenodd" d="M250.273 314.289C250.663 314.281 251.052 314.274 251.438 314.267C251.046 314.275 250.66 314.281 250.273 314.289Z" fill="black"/>
<path fill-rule="evenodd" clip-rule="evenodd" d="M548.048 316.452C548.004 315.83 547.961 315.209 547.917 314.588C547.961 315.211 548.004 315.831 548.048 316.452Z" fill="black"/>
<path fill-rule="evenodd" clip-rule="evenodd" d="M94.072 194.049C94.0225 194.671 93.973 195.293 93.9241 195.913C93.9736 195.291 94.0231 194.669 94.072 194.049Z" fill="black"/>
<path fill-rule="evenodd" clip-rule="evenodd" d="M360.859 114.043C360.163 114.597 359.322 114.287 358.531 114.268C359.308 114.193 360.084 114.118 360.859 114.043Z" fill="black"/>
<path fill-rule="evenodd" clip-rule="evenodd" d="M544.477 340.685C544.486 340.062 544.495 339.44 544.504 338.821C544.495 339.444 544.486 340.064 544.477 340.685Z" fill="black"/>
<path fill-rule="evenodd" clip-rule="evenodd" d="M412.883 363.674C412.928 363.051 412.974 362.429 413.02 361.81C412.974 362.434 412.928 363.054 412.883 363.674Z" fill="black"/>
<path fill-rule="evenodd" clip-rule="evenodd" d="M83.8125 127.84C84.2025 127.865 84.5918 127.889 84.9766 127.914C84.5859 127.89 84.1992 127.865 83.8125 127.84Z" fill="black"/>
<path fill-rule="evenodd" clip-rule="evenodd" d="M342.234 93.6026C341.458 93.6697 340.683 93.7368 339.906 93.8039C340.683 93.7368 341.458 93.6697 342.234 93.6026Z" fill="black"/>
<path fill-rule="evenodd" clip-rule="evenodd" d="M286.146 423.322C286.094 423.944 286.042 424.566 285.99 425.186C286.042 424.562 286.094 423.942 286.146 423.322Z" fill="black"/>
<path fill-rule="evenodd" clip-rule="evenodd" d="M171.699 188.053C170.923 188.115 170.148 188.177 169.371 188.24C170.148 188.177 170.923 188.115 171.699 188.053Z" fill="black"/>
<path fill-rule="evenodd" clip-rule="evenodd" d="M269.48 398.878C271.032 398.813 272.584 398.746 274.137 398.681C272.585 398.746 271.032 398.812 269.48 398.878Z" fill="black"/>
<path fill-rule="evenodd" clip-rule="evenodd" d="M411.147 340.685C411.186 339.648 411.225 338.612 411.263 337.578C411.224 338.614 411.186 339.65 411.147 340.685Z" fill="black"/>
<path fill-rule="evenodd" clip-rule="evenodd" d="M442.344 60.2639C443.314 60.1887 444.283 60.1135 445.254 60.0383C444.284 60.1135 443.314 60.1887 442.344 60.2639Z" fill="black"/>
<path fill-rule="evenodd" clip-rule="evenodd" d="M165.297 271.306C166.267 271.372 167.237 271.439 168.207 271.505C167.237 271.438 166.266 271.372 165.297 271.306Z" fill="black"/>
<path fill-rule="evenodd" clip-rule="evenodd" d="M234.297 247.484C233.887 246.552 233.909 245.724 234.363 244.999C234.606 245.845 234.584 246.673 234.297 247.484Z" fill="black"/>
<path fill-rule="evenodd" clip-rule="evenodd" d="M513.047 306.511C513.056 307.342 513.064 308.171 513.074 308.996C513.066 308.165 513.057 307.338 513.047 306.511Z" fill="black"/>
<path fill-rule="evenodd" clip-rule="evenodd" d="M279.679 387.906C279.67 387.076 279.661 386.246 279.653 385.421C279.662 386.253 279.671 387.08 279.679 387.906Z" fill="black"/>
<path fill-rule="evenodd" clip-rule="evenodd" d="M252.02 304.853C252.796 304.923 253.572 304.993 254.348 305.062C253.571 304.993 252.796 304.922 252.02 304.853Z" fill="black"/>
<path fill-rule="evenodd" clip-rule="evenodd" d="M237.506 250.54C237.386 249.541 237.555 249.171 238.013 249.426C238.134 250.365 237.965 250.736 237.506 250.54Z" fill="black"/>
<path fill-rule="evenodd" clip-rule="evenodd" d="M266.291 208.34C266.283 208.962 266.276 209.584 266.268 210.204C266.276 209.581 266.283 208.96 266.291 208.34Z" fill="black"/>
<path fill-rule="evenodd" clip-rule="evenodd" d="M533.439 326.394C533.434 325.772 533.429 325.15 533.424 324.53C533.428 325.152 533.434 325.773 533.439 326.394Z" fill="black"/>
<path fill-rule="evenodd" clip-rule="evenodd" d="M449.91 60.153C450.686 60.1518 451.462 60.1507 452.238 60.1489C451.461 60.1501 450.686 60.1518 449.91 60.153Z" fill="black"/>
<path fill-rule="evenodd" clip-rule="evenodd" d="M430.703 136.054L433.031 135.854L430.703 136.054Z" fill="black"/>
<path fill-rule="evenodd" clip-rule="evenodd" d="M394.035 240.348C393.646 240.341 393.256 240.335 392.871 240.329C393.262 240.335 393.648 240.342 394.035 240.348Z" fill="black"/>
<path fill-rule="evenodd" clip-rule="evenodd" d="M407.66 358.703C407.696 358.082 407.731 357.459 407.766 356.839C407.73 357.462 407.695 358.083 407.66 358.703Z" fill="black"/>
<path fill-rule="evenodd" clip-rule="evenodd" d="M317.789 368.31C317.399 368.326 317.009 368.342 316.625 368.358C317.016 368.342 317.403 368.325 317.789 368.31Z" fill="black"/>
<path fill-rule="evenodd" clip-rule="evenodd" d="M266.273 210.825C266.277 211.447 266.281 212.071 266.285 212.689C266.282 212.066 266.278 211.445 266.273 210.825Z" fill="black"/>
<path fill-rule="evenodd" clip-rule="evenodd" d="M231.066 51.4518C230.483 51.4523 229.899 51.4529 229.32 51.4529C229.907 51.4529 230.487 51.4523 231.066 51.4518Z" fill="black"/>
<path fill-rule="evenodd" clip-rule="evenodd" d="M233.834 100.849C234.657 101.42 234.779 102.041 234.199 102.713C233.265 102.634 233.145 102.014 233.834 100.849Z" fill="black"/>
<path fill-rule="evenodd" clip-rule="evenodd" d="M277.629 75.0445C278.405 75.0571 279.182 75.0696 279.957 75.0821C279.181 75.0696 278.404 75.0571 277.629 75.0445Z" fill="black"/>
<path fill-rule="evenodd" clip-rule="evenodd" d="M261.044 85.3152C261.042 85.9373 261.04 86.5595 261.038 87.1792C261.04 86.5556 261.042 85.9358 261.044 85.3152Z" fill="black"/>
<path fill-rule="evenodd" clip-rule="evenodd" d="M246.781 86.3566L249.109 86.1379L246.781 86.3566Z" fill="black"/>
<path fill-rule="evenodd" clip-rule="evenodd" d="M352.035 200.514C346.332 201.184 339.08 200.602 333.928 197.639C330.357 195.584 328.702 188.85 333.888 187.904C336.8 187.372 340.295 190.11 342.869 191.168C345.933 192.426 349.131 193.018 352.286 193.9C354.428 194.499 357.539 196.01 355.584 199.279C355.231 199.868 352.075 201.647 352.035 200.514Z" fill="black"/>
<path fill-rule="evenodd" clip-rule="evenodd" d="M432.449 230.465C431.89 234.373 431.807 238.69 430.05 242.262C427.518 247.412 427.018 241.895 427.418 239.066C428.006 234.894 428.325 230.623 428.032 226.406C427.792 222.952 425.614 218.906 427.208 215.796C431.56 218.806 431.648 225.533 432.449 230.465Z" fill="black"/>
<path fill-rule="evenodd" clip-rule="evenodd" d="M432.648 108.911C430.24 108.323 426.303 106.624 429.695 104.227C431.074 103.253 433.791 103.721 435.33 102.808C436.262 102.256 436.791 101.073 437.725 100.644C440.822 99.2218 441.139 101.65 439.974 104.739C438.741 108.005 435.78 109.07 432.648 108.911Z" fill="black"/>
<path fill-rule="evenodd" clip-rule="evenodd" d="M431.255 88.347C435.21 85.1901 434.672 89.1339 432.582 91.9116C431.804 92.8482 431.026 93.7839 430.246 94.7188L430.93 95.612C430.812 96.8828 431.925 97.8226 430.56 98.6545C428.31 100.029 426.618 96.7806 426.629 94.9819C426.645 91.9975 429.399 90.126 431.255 88.347Z" fill="black"/>
<path fill-rule="evenodd" clip-rule="evenodd" d="M430.745 88.6005C427.053 92.4653 427.191 84.6845 429.154 83.0072C432.921 79.7869 430.494 87.2568 430.745 88.6005Z" fill="black"/>
<path fill-rule="evenodd" clip-rule="evenodd" d="M437.805 91.5243C437.542 90.1534 437.508 83.6612 440.065 84.0931C442.846 84.5626 439.784 91.7284 437.805 91.5243Z" fill="black"/>
<path fill-rule="evenodd" clip-rule="evenodd" d="M433.031 109.211C433.421 109.228 433.811 109.246 434.195 109.263C433.804 109.246 433.418 109.228 433.031 109.211Z" fill="black"/>
<path fill-rule="evenodd" clip-rule="evenodd" d="M255.708 60.4618C252.559 54.7337 259.747 44.9529 263.346 52.8691C263.835 53.9413 264.94 56.8309 263.61 57.7199C262.182 58.674 262.488 57.2874 261.313 57.0786C259.913 56.8293 260.371 56.1319 258.744 56.8895C257.588 57.4277 256.507 59.4738 255.708 60.4618Z" fill="black"/>
</svg>
