<svg width="534" height="401" viewBox="0 0 534 401" fill="none" xmlns="http://www.w3.org/2000/svg">
<path fill-rule="evenodd" clip-rule="evenodd" d="M185.343 219.297C186.085 224.293 187.952 228.685 189.528 233.362C190.272 235.574 191.434 237.827 192.574 239.859C193.312 241.174 194.248 244.3 195.602 242.474C195.827 243.427 195.531 243.894 195.844 244.775C196.284 246.019 198.571 247.568 199.565 248.526C200.523 249.449 201.577 250.157 202.609 250.973C202.813 251.134 203.236 251.002 203.401 251.19C203.709 251.54 203.422 252.025 203.551 252.189C205.168 254.222 207.972 255.666 210.074 257.161C213.078 259.296 216.066 261.43 218.994 263.669C221.307 265.437 223.514 267.302 225.809 269.073C226.908 269.922 227.74 270.763 228.557 271.869C229.571 273.242 229.724 273.303 229.019 274.721C227.757 277.256 225.483 278.891 223.964 281.166C222.233 283.76 221.119 286.661 218.767 288.825C217.715 286.45 216.356 289.921 218.103 289.555C217.291 291.964 215.478 294.015 214.268 296.282C212.838 298.96 211.274 301.393 209.581 303.911C209.408 303.288 209.236 302.664 209.063 302.04C207.416 302.434 208.734 303.643 208.856 304.144C208.959 304.569 209.316 304.613 209.061 305.536C208.87 306.23 208.205 306.82 207.783 307.396C206.834 308.692 205.951 310.026 205.056 311.358C204.174 312.669 203.866 313.751 203.298 315.032C202.791 316.176 202.325 315.959 201.508 316.801C200.663 317.671 199.823 319.187 199.07 320.189C196.831 323.17 194.819 326.585 193.291 329.977C191.834 333.211 189.144 335.484 187.914 338.914C187.285 340.665 187.055 342.506 186.51 344.276C186 345.928 185.165 347.464 184.85 349.179C184.588 350.603 184.757 352.252 184.629 353.5C184.526 354.519 184.099 356.085 184.225 357.523C184.493 360.552 185.748 363.18 187.246 365.703C180.412 368.023 172.637 368.674 165.466 368.506C161.802 368.419 157.626 368.385 154.04 369.234C151.967 369.725 150.374 370.336 148.196 370.165C146.02 369.994 143.846 369.789 141.671 369.602C142.306 368.32 144.38 366.707 145.544 365.724C146.216 365.156 147.323 365.022 147.838 364.474C148.427 363.847 148.606 362.281 148.816 361.526C150.429 355.732 151.62 349.884 152.63 343.957C154.415 333.483 155.107 322.818 155.766 312.279C155.814 311.521 156.184 310.605 156.165 309.885C156.135 308.722 155.903 308.068 155.992 306.96C156.048 306.259 156.884 305.322 156.848 304.703C156.815 304.158 155.884 304.572 155.886 303.755C155.888 302.579 157.566 300.886 157.917 299.831C158.052 299.423 157.553 298.875 157.503 298.417L157.501 298.335C157.522 298.348 157.892 296.684 157.907 296.616C158.029 296.084 158.509 295.916 158.484 295.249C158.464 294.673 157.621 293.922 158.076 293.324C158.387 292.916 159.52 293.571 159.775 293.107C160.105 292.508 158.658 290.466 158.819 289.54C159.08 288.034 160.154 286.505 160.52 284.957C160.683 284.267 160.502 283.188 161.037 282.617C161.91 281.687 162.669 282.64 163.929 282.329C162.644 281.237 162.395 280.281 162.775 278.688C163.071 277.444 163.662 276.063 165.021 277.305C164.818 275.448 164.825 275.159 166.21 273.752C166.881 273.07 167.605 271.923 168.408 271.462C168.651 271.207 168.894 270.951 169.137 270.696C169.466 271.039 169.858 271.234 170.311 271.278C174.194 271.072 176.133 270.275 179.699 272.606C181.203 273.59 182.702 274.326 183.995 275.606C185.437 277.034 186.6 278.715 188.145 280.049C189.872 281.541 191.576 282.766 193.116 284.477C194.39 285.892 195.615 287.495 197.321 288.359C197.452 286.313 196.334 284.483 195.357 282.695C195.24 282.481 194.39 281.906 194.408 281.969C194.305 281.611 194.697 281.302 194.575 280.984C196.054 282.323 197.584 284.311 199.278 285.314C202.043 286.95 200.814 283.756 200.287 282.114C198.783 277.432 196.058 272.945 192.908 269.165C187.395 262.555 178.2 255.174 169.401 259.335C160.68 263.459 156.085 270.386 153.583 279.599C150.679 290.294 149.346 300.513 149.07 311.591C148.911 317.933 148.265 324.224 147.6 330.531C146.949 336.685 146.683 343.352 145.443 349.395C144.665 348.26 144.206 347.404 143.817 346.13C143.659 345.614 143.857 345.109 143.588 344.602C143.464 344.369 142.834 344.397 142.716 344.185C141.75 342.439 140.393 340.038 139.949 338.029C139.715 336.971 139.928 336.353 139.476 335.391C139.051 334.488 138.837 335.344 138.675 334.229C138.653 334.075 139.365 333.821 139.145 333.099C138.591 331.276 138.2 333.004 137.934 332.992C137.385 332.969 138.624 329.23 138.526 328.643C138.414 327.968 138.1 328.336 137.946 327.844C137.808 327.399 137.64 326.757 137.536 326.139C137.221 324.258 136.509 323.643 136.477 321.608C136.438 319.15 135.528 317.569 135.121 315.221C135.046 314.789 135.518 314.303 135.432 313.925C135.255 313.138 134.686 312.484 134.464 311.652C134.001 309.912 134.925 308.412 134.797 306.736C134.818 307.01 134.277 305.502 134.243 305.369C134.048 304.603 134.132 303.576 133.978 302.742C133.832 301.959 133.351 300.915 133.782 300.183C134.077 299.682 134.739 299.819 135.125 299.26C133.708 298.803 134.006 299.302 133.494 297.737C133.005 296.243 132.958 294.991 134.576 295.979C134.167 294.971 133.406 293.734 133.24 292.654C133.089 291.667 133.451 290.713 133.347 289.731C133.07 287.102 132.26 285.501 133.753 282.951C131.786 281.943 132.638 278.436 132.333 276.528C132.003 274.457 131.197 272.478 132.75 271.118C130.781 269.702 131.782 265.111 131.819 262.918C131.854 260.82 131.69 258.694 131.715 256.257C131.729 254.88 131.342 253.933 131.014 252.571C130.59 250.815 131.021 249.468 130.876 247.77C130.761 246.421 130.252 245.066 130.183 243.629C130.113 242.163 130.235 240.518 130.028 239.078C129.857 237.886 129.572 237.033 129.542 235.745C129.534 235.364 129.348 234.678 129.426 234.323C129.423 234.337 129.957 233.096 129.953 233.644C129.968 231.604 128.949 229.612 129.483 227.127C129.923 225.087 130.291 225.421 132.347 225.548C133.969 225.648 135.59 225.755 137.215 225.761C139.319 225.769 146.088 224.308 147.612 225.793C148.873 227.023 148.14 232.846 148.226 234.605C148.365 237.467 145.627 238.343 144.869 241.266C143.422 246.84 145.812 254.197 152.334 254.674C158.418 255.118 164.255 250.11 163.42 243.953C163.084 241.482 161.948 238.793 159.801 237.348C157.726 235.949 153.316 237.003 151.87 235.317C151.196 234.531 151.463 231.473 151.385 230.447C151.271 228.954 150.588 225.968 151.571 225.261C152.68 224.461 156.107 224.446 157.373 224.442C159.168 224.438 160.801 224.44 162.582 224.138C166.524 223.47 170.453 223.497 174.325 222.622C178.169 221.755 181.721 220.847 185.343 219.297ZM232.315 219.297C233.116 219.277 234.836 225.912 235.29 227.083C236.529 230.282 237.037 233.509 237.727 236.873C238.434 240.327 239.069 243.837 239.986 247.24C240.675 249.797 240.52 252.273 241.447 254.848C241.202 256.441 241.422 259.195 239.664 259.88C238.074 260.5 237.041 258.987 236.451 257.676C234.856 254.135 235.368 249.41 234.787 245.603C234.101 241.108 234.061 236.68 233.523 232.18C233.049 228.214 231.444 223.205 232.315 219.297ZM162.914 128.37C164.657 130.34 167.217 129.513 169.513 129.294C168.539 131.511 167.141 133.884 167.088 136.366C167.062 137.654 167.754 138.797 167.746 140.026C167.738 141.244 166.751 142.381 166.283 143.512C164.18 148.586 163.672 155.461 163.593 160.911C163.431 172.184 166.801 184.191 173.969 193.03C175.482 194.895 177.182 196.618 179.083 198.09C180.116 198.889 184.877 200.789 185.1 201.912C185.532 204.087 180.646 203.872 179.312 204.067C176.507 204.477 173.734 205.065 170.925 205.443C159.667 206.959 148.554 208.17 137.204 207.557C135.948 207.49 133.6 208.116 132.413 207.612C131.019 207.021 131.494 205.845 131.528 204.469C131.615 200.938 131.108 197.465 130.812 193.957C130.572 191.119 131.221 191.497 133.299 189.927C135.448 188.302 137.549 185.287 138.251 182.702C140.25 184.316 138.802 185.184 139.087 187.254C139.434 189.78 141.139 189.366 142.264 187.676C144.009 185.054 143.855 180.909 142.224 178.288C140.763 175.942 135.552 172.339 132.595 173.412C128.661 174.841 132.943 179.634 134.804 180.673C134.345 182 131.804 183.166 130.671 183.894C129.099 184.905 127.06 185.492 125.242 186.052C120.394 187.545 115.682 187.762 110.678 187.03C105.87 186.327 100.364 184.76 97.2625 180.814C95.921 179.108 94.6876 176.51 95.9746 174.373C97.1339 172.447 100 172.314 101.409 170.448C102.018 169.643 102.311 168.575 102.87 167.795C103.78 166.527 103.414 166.753 105.124 166.898C107.893 167.133 110.845 167.312 113.572 166.644C115.621 166.142 117.617 165.204 119.622 164.606C121.751 163.97 123.769 162.634 125.415 161.195C129.211 157.874 132.928 154.265 136.443 150.646C139.937 147.048 142.175 142.417 145.447 138.602C149.154 134.279 152.719 128.753 158.153 126.373C161.275 125.006 161.218 126.452 162.914 128.37ZM176.114 142.741C176.643 143.295 176.307 146.468 176.811 147.481C178.748 151.372 182.135 150.512 185.64 149.695C185.942 152.813 186.176 156.324 187.432 159.23C187.994 160.528 188.881 161.642 189.334 162.998C189.621 163.857 189.505 164.948 189.83 165.747C190.18 166.61 191.068 167.276 191.587 168.127C192.215 169.155 192.544 170.115 193.369 171.015C195.175 172.983 197.628 174.651 199.01 176.999C199.578 177.962 199.678 178.677 199.66 179.799C199.655 180.201 199.372 181.679 199.498 181.977C199.958 183.069 201.615 183.351 201.799 184.763C201.902 185.556 201.471 185.461 201.324 186.122C201.148 186.917 201.274 187.462 200.984 188.348C200.522 189.753 198.487 192.399 198.699 193.609C195.705 195.259 190.439 196.305 187.085 195.552C183.655 194.781 180.226 190.882 178.013 188.328C172.816 182.332 169.791 172.86 169.507 165.016C169.363 161.036 169.893 157.036 170.08 153.062C170.185 150.824 169.708 144.517 171.603 142.949C172.026 142.598 175.743 142.352 176.114 142.741ZM148.157 150.249C143.535 150.515 139.568 157.76 140.423 161.992C141.126 165.466 142.31 162.779 143.21 161.287C144.272 159.526 146.195 157.396 148.476 157.848C151.012 158.351 151.659 161.443 152.693 163.404C154.578 166.979 155.166 163.14 155.584 160.97C155.251 156.726 153.695 149.932 148.157 150.249Z" fill="#FFF2AC"/>
<path fill-rule="evenodd" clip-rule="evenodd" d="M426.767 366.744C424.357 367.493 422.098 368.596 419.775 369.582C417.14 370.701 415.299 370.897 412.421 370.892C401.278 370.875 390.25 371.448 379.086 371.674C376.037 371.735 372.942 371.766 369.892 371.71C368.661 371.688 367.454 371.548 366.228 371.447C365.436 371.382 361.984 371.856 361.524 371.579C360.23 370.799 360.998 365.779 360.841 364.17C360.568 361.376 359.862 358.684 358.878 356.059C355.358 346.669 349.438 337.507 341.954 330.805C352.074 326.55 363.114 320.939 374.345 323.464C378.623 324.425 384.293 325.683 386.496 329.827C388.847 334.25 390.906 339.114 393.594 343.349C396.598 348.082 399.787 352.137 404.135 355.687C405.851 357.088 414.498 365.694 413.185 359.051C412.764 356.92 411.207 354.94 409.964 353.2C409.332 352.315 405.923 349.413 406.454 348.388C407.049 347.238 413.195 346.427 414.513 346.061C417.234 345.306 419.94 344.5 422.65 343.708C421.67 345.557 416.339 352.555 419.745 354.343C420.996 355 424.233 352.673 425.604 352.264C427.941 351.568 430.077 352.026 432.373 352.716C432.314 353.844 430.099 353.859 429.362 354.63C428.286 355.759 427.529 358.801 428.374 360.153C429.947 362.671 436.035 360.101 438.757 361.057C435.697 364.219 430.896 365.461 426.767 366.744ZM274.71 262.777C274.741 262.842 274.684 262.933 274.318 263.251C274.206 262.849 274.007 262.761 273.762 262.871C273.959 262.657 274.121 262.544 274.318 263.251C274.472 263.117 274.6 262.951 274.71 262.777ZM275.64 261.451C275.568 261.693 275.401 261.806 275.147 261.8C275.161 261.758 275.173 261.718 275.183 261.688C275.352 261.16 275.576 261.25 275.501 260.279C275.602 260.442 275.679 260.605 275.622 260.769C275.783 261.015 275.788 261.242 275.64 261.451ZM248.554 307.023C248.811 306.401 248.879 305.679 249.211 305.107C248.886 305.687 248.881 306.401 248.554 307.023ZM353.251 371.183C349.217 371.022 345.286 371.094 341.254 371.269C332.637 371.645 323.982 371.7 315.382 372.392C311.175 372.731 307.131 372.86 302.911 372.719C299.222 372.594 295.519 372.726 291.841 372.416C287.803 372.076 284.022 370.959 279.946 370.898C276.05 370.84 271.409 370.389 267.629 370.959C266.977 371.057 266.625 371.473 265.855 371.574C264.791 371.712 263.294 371.279 262.205 371.205C260.294 371.076 258.181 371.288 256.316 370.842C255.676 370.689 255.227 370.453 254.606 370.202C254.046 369.976 252.789 369.802 252.481 369.721C254.258 369.058 250.316 367.706 249.998 367.632C249.918 367.901 250.095 368.279 250.386 368.644C249.377 367.87 250.458 368.156 248.808 367.37C248.114 367.04 246.803 366.827 246.025 366.74C245.277 366.655 244.873 366.744 244.532 366.725C244.601 366.649 244.669 366.547 244.735 366.41C245.285 365.273 243.608 363.974 242.665 364.738C242.774 364.961 242.951 365.371 243.164 365.775C243.155 365.764 243.147 365.755 243.137 365.744C242.788 365.34 242.13 364.306 241.476 363.61C242.306 363.152 241.291 362.528 240.908 361.889C240.646 362.033 240.356 362.155 240.205 362.356C240.423 361.9 240.964 361.487 240.647 360.601C240.556 360.348 240.317 359.966 240.016 359.698C240.302 359.922 240.599 360.17 240.983 360.117C240.502 359.388 240.326 359.113 240.142 358.382C240.014 357.868 240.732 357.372 240.05 356.907C240.07 356.422 240.358 354.195 239.151 354.972C239.151 354.972 239.151 354.972 239.15 354.973C239.151 354.972 239.151 354.971 239.151 354.97C239.924 352.603 241.239 350.159 242.216 347.844C244.492 342.454 246.832 337.023 249.214 331.68C253.153 322.841 257.266 314.025 261.797 305.424C266.29 296.897 271.195 288.651 275.436 280.006C279.526 271.667 284.298 263.687 288.416 255.36C290.356 251.438 292.956 248.196 293.618 243.639C293.832 242.163 293.9 239.086 291.669 239.639C290.219 239.999 288.189 243.634 287.253 244.816C286.414 243.664 281.684 236.89 280.415 240.926C279.327 244.386 286.14 245.893 283.421 249.378C283.152 249.724 282.036 250.073 281.669 250.392C280.955 251.014 280.302 252.111 279.751 252.861C278.495 254.571 277.456 256.388 276.295 258.156C276.076 258.489 275.278 259.242 275.216 259.631C275.183 259.838 275.357 260.051 275.492 260.266C274.547 261.103 273.356 261.843 273.134 263.199C273.2 263.228 273.26 263.232 273.318 263.221C272.44 264.14 271.328 266.37 271.169 266.602C269.986 268.325 268.825 270.128 267.655 271.947C267.023 272.93 265.918 274.085 265.555 275.19C265.43 275.572 265.797 276.256 265.454 276.614C264.552 277.554 263.671 277.354 262.997 279.244C262.731 279.988 262.708 281.028 262.281 281.667C261.597 282.691 260.618 283.173 259.979 284.275C258.767 286.366 257.313 288.661 256.549 290.771C256.547 290.779 256.546 290.787 256.543 290.796C256.517 290.63 256.481 290.452 256.438 290.256C256.005 291.034 255.573 291.813 255.14 292.592C255.889 292.446 256.289 292.242 256.472 291.908C256.45 292.02 256.415 292.136 256.347 292.257C255.964 292.434 255.561 292.545 255.14 292.592C254.85 293.071 254.579 293.561 254.325 294.061C254.201 294.313 253.784 295.853 253.608 297.02C253.544 296.567 253.479 296.161 253.472 296.107C252.923 297.165 252.374 298.223 251.825 299.28C252.821 298.514 252.765 298.384 253.713 298.365C252.518 298.389 250.709 300.07 250.543 301.684C250.516 301.947 250.676 302.234 250.818 302.505C250.786 302.5 250.753 302.496 250.715 302.493C249.463 302.387 249.829 302.639 249.355 303.684C249.536 303.611 250.59 303.2 250.986 302.878C251.029 303.015 251.036 303.141 250.969 303.248C250.659 303.742 248.124 303.423 249.752 304.519C248.399 303.609 247.724 306.597 248.184 307.624C247.82 308.15 247.386 308.635 246.978 309.123C245.975 310.32 245.421 311.228 244.764 312.686C243.646 315.168 242.312 317.631 241.089 320.066C240.625 320.992 240.084 321.781 239.515 322.64C238.505 324.165 238.683 323.785 239.479 325.446C239.18 325.349 238.738 325.584 238.31 325.926C238.543 325.531 238.839 325.238 239.479 325.446C238.469 323.338 237.601 325.907 237.136 327.115C237.157 327.115 237.174 327.109 237.193 327.108C237.13 327.202 237.082 327.285 237.053 327.352C236.578 328.332 236.017 328.933 236.423 329.96C236.539 329.388 237.003 328.946 237.199 328.454C236.922 329.653 235.616 331.089 235.222 331.882C234.895 332.542 234.849 333.234 234.446 333.951C234.068 334.625 233.727 335.079 233.437 335.849C232.033 339.575 231.35 343.725 230.464 347.639C229.417 352.263 228.986 357.178 228.762 361.911C228.696 363.287 228.66 364.503 229.155 365.809C229.227 365.999 229.998 367.006 229.978 367.375C229.871 369.3 226.26 368.9 224.87 368.845C222.662 368.756 221.158 369.113 219.037 369.421C217.08 369.704 215.159 369.549 213.172 370.03C209.871 370.828 204.956 372.093 201.765 370.339C200.222 369.491 198.279 367.032 197.159 365.652C195.781 363.954 195.317 362.224 195.07 360.061C194.649 356.361 194.62 352.272 195.905 348.735C201.875 332.302 212.118 317.363 220.951 302.407C229.24 288.373 238.533 275.071 246.838 261.075C251.229 253.677 256.511 246.357 261.734 239.519C267.072 232.53 270.881 224.925 274.644 217.015C278.545 219.086 282.674 221.216 287.036 222.152C289.516 222.684 291.979 222.522 294.48 222.694C296.322 222.821 297.865 223.257 299.742 223.305C307.973 223.514 317.484 222.527 325.352 220.093C327.24 219.509 328.928 218.903 330.698 218.062C332.957 216.988 333.567 216.532 333.696 219.028C333.944 223.862 334.732 228.561 335.103 233.366C335.465 238.05 336.407 242.669 337.24 247.297C337.662 249.64 338.117 251.982 338.463 254.338C338.726 256.126 339.519 258.612 339.204 260.399C338.856 262.372 336.989 264.374 335.921 266.057C334.837 267.765 333.747 269.469 332.665 271.179C330.638 274.386 328.619 277.428 326.224 280.37C321.785 285.824 318.006 291.528 313.797 297.16C309.327 303.14 305.612 309.6 301.225 315.642C298.908 318.834 296.538 321.844 295.02 325.438C293.76 328.42 291.225 331.162 289.675 334.113C287.639 337.987 285.05 341.535 283.028 345.428C281.617 348.148 278.892 350.914 278.605 354.074C278.126 359.376 283.161 354.078 284.327 352.6C285.89 350.617 287.604 347.146 289.952 346.071C291.629 345.304 294.079 345.387 295.9 344.786C297.808 344.157 299.68 343.503 301.607 342.927C305.36 341.805 308.98 340.22 312.628 338.795C316.404 337.319 320.179 335.83 323.885 334.189C325.6 333.429 327.045 333.04 328.878 332.709C329.666 332.567 332.488 331.232 333.109 331.345C334.152 331.536 335.591 334.607 336.382 335.396C337.601 336.613 338.973 337.608 340.112 338.918C342.355 341.498 344.732 344.247 346.678 347.051C351.025 353.315 355.091 360.158 356.637 367.703C357.331 371.089 356.521 371.314 353.251 371.183ZM240.19 362.994C240.164 362.937 240.147 362.883 240.136 362.831C240.15 362.883 240.162 362.935 240.19 362.994C240.705 362.689 240.842 362.851 240.894 363.101C240.635 362.934 240.393 362.874 240.19 362.994ZM238.991 359.498C238.97 359.403 238.961 359.316 238.957 359.233C238.965 359.32 238.972 359.408 238.991 359.498C239.273 359.309 239.508 359.362 239.734 359.498C239.494 359.367 239.234 359.334 238.991 359.498ZM239.509 357.209C239.667 357.197 239.847 357.111 240.05 356.907C239.883 357.074 239.727 357.25 239.584 357.434C239.586 357.411 239.59 357.39 239.592 357.366C239.595 357.322 239.559 357.268 239.509 357.209ZM188.251 338.036C187.079 340.802 186.592 343.829 185.596 346.662C184.835 348.83 184.531 350.971 184.331 353.237C185.026 353.75 185.01 354.201 184.284 354.592C184.233 355.085 184.215 355.579 184.232 356.075C184.043 357.518 184.321 358.774 184.703 360.157C185.307 362.35 186.073 363.926 187.197 365.822C180.375 368.139 172.604 368.791 165.447 368.623C161.579 368.532 157.24 368.524 153.471 369.479C149.412 370.508 145.853 370.078 141.684 369.719C142.293 368.49 144.621 366.441 145.8 365.587C146.4 365.153 147.387 365.079 147.842 364.592C148.491 363.899 148.568 362.554 148.82 361.645C150.428 355.85 151.618 350.006 152.629 344.079C154.409 333.63 155.235 322.934 155.76 312.407C155.805 311.516 156.264 310.517 156.242 309.673C156.213 308.565 155.896 308.203 155.985 307.089C156.043 306.363 156.913 305.377 156.85 304.731C156.81 304.326 155.82 304.676 155.88 303.884C155.972 302.664 157.549 301.056 157.907 299.961C158.066 299.474 157.473 298.989 157.491 298.457C157.486 298.609 157.883 296.811 157.898 296.746C158.018 296.23 158.501 296.013 158.475 295.38C158.451 294.804 157.614 294.051 158.067 293.455C158.525 292.852 159.475 293.764 159.764 293.237C160.093 292.639 158.648 290.598 158.809 289.672C159.09 288.051 160.191 286.308 160.622 284.663C160.783 284.046 160.523 283.284 161.024 282.75C161.897 281.82 162.654 282.773 163.912 282.461C162.664 281.4 162.389 280.376 162.759 278.821C163.06 277.558 163.639 276.191 165.002 277.439C164.822 275.794 164.63 275.627 165.81 274.253C166.828 273.067 168.148 271.646 169.368 270.738C171.19 269.379 174.098 268.68 176.26 268.52C178.618 268.346 181.518 269.612 183.303 271.397C185.474 273.568 188.282 275.15 190.746 277.226C193.376 279.442 195.635 282.074 198.162 284.423C198.681 284.905 199.636 286.253 200.437 286.021C201.745 285.643 200.689 283.69 200.402 282.821C198.365 276.639 194.703 270.411 189.665 266.194C187.067 264.018 184.482 261.266 181.462 259.682C179.023 258.402 177.117 258.603 174.524 258.512C172.306 258.434 171.851 258.303 169.874 259.237C168.472 259.899 167.085 260.545 165.762 261.355C163.647 262.649 161.466 264.222 159.903 266.177C155.742 271.385 154.118 278.007 152.483 284.353C150.684 291.333 149.445 298.153 149.227 305.396C149.005 312.765 148.664 320.025 147.939 327.365C147.561 331.182 147.127 334.991 146.634 338.795C146.18 342.302 146.157 346.071 145.451 349.515C144.562 348.218 144.286 347.217 143.795 345.82C143.464 344.879 143.128 344.911 142.649 344.217C141.633 342.749 140.364 339.965 139.964 338.153C139.719 337.045 139.946 336.489 139.492 335.514C139.352 335.213 138.59 335.449 138.468 334.972C138.38 334.63 138.857 334.365 138.836 334.249C138.786 333.979 139.528 333.679 138.887 332.83C137.977 331.625 138.443 333.137 137.952 333.116C137.543 333.099 138.771 328.939 138.626 328.335C138.575 328.121 137.879 328.093 137.823 327.895C137.654 327.295 137.692 326.426 137.527 325.775C137.124 324.186 136.526 323.548 136.497 321.733C136.458 319.335 135.57 317.637 135.143 315.348C135.061 314.908 135.544 314.432 135.454 314.052C135.271 313.278 134.698 312.6 134.487 311.779C134.081 310.201 134.623 307.974 134.512 306.691C134.415 305.568 134.1 303.745 133.893 302.349C133.556 300.078 134.162 300.819 135.147 299.39C133.781 298.949 133.955 299.337 133.518 297.868C133.015 296.17 133.061 295.169 134.599 296.109C134.19 295.1 133.431 293.865 133.265 292.784C133.11 291.781 133.476 290.859 133.372 289.862C133.088 287.164 132.247 285.7 133.777 283.083C131.81 282.074 132.667 278.6 132.359 276.662C132.027 274.57 131.22 272.616 132.775 271.253C131.176 270.101 131.809 266.797 131.816 265.033C131.819 264.232 132.09 262.824 132.021 262.113C131.973 261.613 131.633 261.278 131.535 260.696C131.172 258.539 131.974 256.403 131.491 254.258C130.947 251.84 130.884 249.778 130.697 247.409C130.517 245.112 130.162 242.725 130.009 240.371C129.897 238.624 129.216 236.734 129.53 234.924C129.554 234.782 129.97 233.494 129.981 233.785C129.962 233.32 129.624 232.744 129.608 232.466C129.497 230.372 129.457 228.664 129.547 226.538C129.542 226.538 129.538 226.537 129.533 226.537C129.792 226.38 129.932 226.052 129.943 225.541C131.9 225.352 134.041 225.83 136.019 225.883C138.15 225.94 140.275 225.833 142.404 225.735C143.774 225.671 146.726 225.022 147.769 226.167C148.524 226.996 148.049 231.265 148.099 232.376C148.159 233.688 148.822 235.746 148.056 236.894C147.58 237.607 146.505 237.891 145.951 238.673C145.614 239.149 145.34 239.946 145.161 240.463C144.619 242.02 144.404 243.701 144.487 245.345C144.877 253.042 151.038 256.576 157.955 253.474C163.981 250.773 165.619 242.601 160.442 238.023C159.223 236.944 157.924 236.671 156.368 236.405C155.38 236.236 152.682 236.339 152.036 235.633C151.395 234.932 151.551 232.745 151.48 231.835C151.366 230.375 150.779 228.205 151.097 226.796C150.576 225.622 150.924 225.125 152.141 225.305C152.527 225.228 152.912 225.15 153.297 225.072C154.268 224.896 155.222 224.684 156.208 224.616C157.966 224.495 159.68 224.704 161.438 224.469C163.163 224.237 164.854 223.806 166.583 223.582C168.419 223.344 170.222 223.609 172.04 223.297C175.812 222.65 179.865 221.78 183.394 220.296C184.339 219.898 185.941 218.753 186.99 218.942C188.246 219.169 187.91 219.969 188.272 221.165C190.278 227.799 194.447 234.354 198.86 239.628C203.025 244.607 208.516 248.622 213.482 252.798C216.493 255.33 219.384 257.991 222.18 260.758C224.208 262.766 226.385 265.907 229.005 267.065C229.602 267.087 231.905 266.823 232.326 267.255C232.812 267.753 232.783 268.031 232.589 268.341C233.145 266.873 230.497 267.121 229.005 267.065C229.174 267.349 230.85 270.714 231.264 268.842C231.505 268.986 231.745 269.13 231.986 269.273C230.795 271.907 229.253 274.547 227.579 276.904C226.358 278.622 224.781 279.865 223.686 281.647C222.303 283.894 221.151 286.227 219.4 288.23C215.907 292.225 213.962 297.596 210.917 302.028C209.453 304.158 208.689 306.139 207.166 308.259C205.975 309.918 204.045 312.017 203.351 313.926C203.074 314.69 203.371 315.352 202.863 316.059C202.543 316.505 201.593 316.99 201.145 317.454C199.365 319.294 197.977 321.92 196.582 324.085C195.095 326.391 194.059 328.783 192.8 331.185C191.508 333.649 189.37 335.395 188.251 338.036ZM141.94 348.556C141.015 348.57 140.668 348.575 140.565 348.169C140.535 348.046 140.525 347.887 140.529 347.68C140.525 347.887 140.535 348.046 140.565 348.169C140.668 348.575 141.015 348.57 141.94 348.555V348.556ZM142.056 345.105C142.152 345.364 141.575 345.804 140.043 345.641C141.561 345.802 142.141 345.366 142.056 345.105ZM138.289 353.769C138.426 353.89 138.559 354.017 138.689 354.148C138.56 354.017 138.426 353.89 138.289 353.769ZM128.733 371.885C127.486 371.449 124.24 370.676 122.127 369.764C123.069 370.028 124.05 370.246 124.428 370.378C125.863 370.88 127.298 371.383 128.733 371.885C130.766 364.548 138.399 361.751 144.93 359.043C141.784 358.91 140.66 356.175 138.758 354.221C140.656 356.171 141.798 358.911 144.93 359.043C138.4 361.751 130.766 364.549 128.733 371.885ZM121.594 364.499C121.523 364.618 121.452 364.741 121.38 364.875C121.185 365.239 120.452 366.87 120.144 367.94C120.082 366.84 120.734 365.553 121.594 364.499ZM128.78 225.184C128.896 225.138 128.99 225.13 129.075 225.137C128.734 225.152 128.641 225.558 128.626 226.121C128.33 225.806 128.259 225.392 128.78 225.184ZM152.485 242.139C154.709 243.245 156.868 243.888 158.99 245.226C156.386 247.253 148.075 250.525 148.324 244.263C148.353 243.533 148.779 241.573 149.444 241.139C150.456 240.479 151.603 241.7 152.485 242.139ZM127.023 212.981C136.817 216.403 148.228 215.557 158.183 213.888C168.878 212.095 179.557 211.039 189.918 207.682C189.928 209.127 190.554 210.64 189.411 211.831C188.515 212.765 186.572 212.941 185.388 213.334C182.29 214.363 179.629 215.861 176.392 216.475C172.765 217.164 169.142 217.15 165.484 217.557C164.159 217.705 162.914 217.942 161.669 218.182C159.946 218.208 158.596 218.442 156.876 218.92C150.723 218.949 144.611 219.132 138.483 218.398C135.37 218.025 132.292 217.568 129.172 217.25C126.25 216.952 126.902 215.69 127.023 212.981ZM123.276 186.658C117.508 188.253 111.559 187.775 105.884 185.949C101.78 184.629 96.3362 182.695 95.4733 177.694C94.9035 174.395 96.8781 173.797 99.2004 172.428C100.312 171.773 100.852 171.278 101.599 170.168C102.043 169.508 102.441 167.854 102.939 167.403C104.152 166.304 107.981 167.269 109.879 167.184C112.707 167.057 114.625 166.105 117.227 165.265C121.823 163.781 124.732 161.981 128.299 158.585C131.77 155.282 135.846 151.922 138.652 148.029C141.794 143.67 144.802 139.429 148.226 135.271C150.762 132.191 155.365 126.024 159.916 126.053C162.201 126.067 161.863 128.225 163.678 129.321C165.334 130.322 167.502 129.625 169.323 129.452C168.122 132.184 166.457 134.993 167.047 138.084C167.377 139.815 167.553 140.412 166.877 142.051C166.26 143.547 165.593 144.873 165.21 146.476C163.722 152.721 163.017 159.749 163.642 166.135C164.723 177.189 168.506 188.603 176.781 196.406C178.667 198.185 180.743 199.608 183.053 200.778C185.358 201.946 185.549 203.162 182.693 203.683C177.132 204.699 171.487 205.393 165.886 206.147C160.293 206.9 154.6 207.687 148.959 207.802C146.169 207.86 143.395 208.208 140.606 208.009C139.216 207.91 137.836 207.662 136.443 207.623C135.226 207.59 133.411 208.198 132.279 207.718C130.507 206.967 131.388 201.775 131.258 199.971C131.108 197.902 129.804 194.022 130.579 192.066C131.123 190.693 133.12 190.117 134.155 189.048C135.853 187.294 137.459 185.215 138.108 182.824C140.258 184.562 138.408 185.676 139.061 187.795C139.773 190.107 141.086 189.381 142.115 187.794C143.831 185.146 143.716 181.054 142.074 178.413C141.124 176.886 139.581 175.739 137.997 174.922C136.716 174.262 133.879 172.966 132.46 173.54C128.609 175.098 132.708 179.703 134.666 180.797C134.195 182.157 130.86 184.12 129.588 184.701C127.698 185.564 125.304 186.097 123.276 186.658ZM176.134 144.483C176.185 145.224 176.264 145.932 176.508 146.64C177.006 148.086 178.003 149.338 179.376 150.054C182.04 151.443 187.442 149.443 189.784 147.805C189.784 152.77 190.673 156.72 192.096 161.431C193.472 165.989 196.289 169.698 198.686 173.745C199.929 175.843 201.07 178.009 202.825 179.733C204.608 181.484 204.905 182.155 204.742 184.737C204.475 188.99 202.452 191.891 198.628 193.652C195.599 195.333 189.343 196.699 186.043 195.294C182.574 193.817 179.194 189.992 176.947 187.049C171.843 180.361 169.254 170.289 169.564 161.974C169.726 157.644 169.954 153.212 170.368 148.897C170.67 145.754 170.56 141.234 175.127 142.651C176.602 143.108 176.016 142.767 176.134 144.483ZM193.659 202.553C194.1 201.655 197.976 200.752 198.65 201.279C199.674 202.078 199.717 206.738 200.076 208.065C200.646 210.17 201.397 212.251 202.3 214.236C204.197 218.401 206.919 222.702 210.148 225.946C213.494 229.306 217.339 231.635 221.402 234.043C222.563 234.731 223.687 235.561 224.879 236.186C225.38 236.449 226.307 236.571 226.701 236.965C227.677 237.942 227.226 239.945 227.214 241.216C227.167 246.307 227.185 251.234 227.859 256.256C223.878 253.171 220.281 249.255 216.736 245.659C213.02 241.887 208.235 239.397 204.711 235.402C201.505 231.769 198.982 227.533 196.626 223.33C195.595 221.488 193.629 219.141 193.558 216.988C193.482 214.667 194.539 212.21 194.551 209.806C194.559 208.105 193.005 203.889 193.659 202.553ZM241.463 254.53C241.221 256.068 241.414 259.364 239.278 259.695C237.807 259.923 236.903 258.526 236.364 257.355C234.736 253.817 235.274 249.099 234.666 245.298C233.948 240.811 233.931 236.388 233.376 231.894C232.887 227.932 231.254 222.934 232.144 219.029C232.951 219.01 235.13 226.65 235.6 227.861C236.568 230.355 237.683 232.454 238.52 235.04C239.629 238.465 240.591 241.736 241.102 245.32C241.462 247.839 242.81 252.313 241.463 254.53ZM253.279 237.638C251.286 240.736 249.133 243.965 246.324 246.55C246.324 245.104 245.244 240.405 245.976 239.288C246.848 237.957 251.794 237.896 253.279 237.638ZM175.952 115.611C177.645 114.841 179.535 114.599 181.243 113.803C182.876 113.043 184.089 112.584 185.902 112.435C192.201 111.917 198.616 113.532 204.445 115.297C207.652 116.269 210.183 118.398 212.893 120.243C215.696 122.151 217.233 123.812 218.453 127.041C221.079 133.986 222.695 140.552 223.74 147.875C224.8 155.306 223.079 162.816 223.186 170.262C223.291 177.607 223.815 185.255 226.146 192.249C227.948 197.657 231.141 206.361 237.872 206.901C244.261 207.413 249.666 200.817 252.307 195.865C259.291 182.773 261.915 167.808 262.294 153.116C263.279 148.199 263.843 142.897 265.552 138.182C267.453 141.158 269.002 144.351 270.75 147.418C272.667 150.785 272.544 153.531 272.378 157.356C272.249 160.33 271.201 163.172 270.82 166.134C270.38 169.553 269.572 172.886 269.377 176.339C269.15 180.412 269.377 184.526 269.034 188.588C268.746 192.003 267.993 195.434 267.446 198.818C266.915 202.106 266.85 205.344 266.928 208.622C267.004 211.795 268.1 214.877 270.785 216.575C266.794 221.506 261.819 228.767 255.133 229.936C252.892 230.328 250.798 230.633 248.529 230.799C246.683 230.934 244.527 231.971 242.935 230.819C240.196 228.836 239.656 224.416 238.621 221.526C237.904 219.527 230.804 203.154 227.067 207.793C226.401 208.619 226.558 211.652 226.456 212.816C226.309 214.494 226.377 216.201 226.323 217.885C226.255 220.028 226.065 222.201 226.214 224.344C226.304 225.637 227.079 227.032 225.618 227.343C224.265 227.631 221.413 224.94 220.428 224.243C219.107 223.308 217.683 222.606 216.344 221.705C213.593 219.853 211.41 217.522 209.452 214.879C207.481 212.22 205.727 209.236 204.393 206.199C203.716 204.659 203.162 203.08 202.597 201.498C202.609 201.533 201.757 199.537 201.804 199.398C201.954 198.952 203.756 198.211 204.201 197.859C209.284 193.842 210.302 183.852 208.951 178.009C208.133 174.474 205.427 171.368 203.505 168.358C201.649 165.45 199.685 162.602 198.145 159.508C196.447 156.099 195.135 152.52 193.612 149.034C192.877 147.352 191.995 146.486 193.093 144.945C193.765 144.001 195.158 143.614 195.757 142.58C196.36 141.54 196.423 139.533 195.337 138.789C194.15 137.975 192.424 139.112 191.336 139.555C189.885 140.146 188.434 140.433 186.953 140.887C185.271 141.404 183.757 142.546 181.971 142.546C182.931 139.235 187.08 139.549 188.426 136.471C189.345 134.366 189.225 130.451 186.358 130.104C184.731 129.907 183.447 131.15 182.236 131.985C180.643 133.082 179.44 133.287 177.574 133.631C176.887 133.758 175.771 134.403 175.119 134.184C174.062 133.828 174.672 134.048 175.226 133.177C176.049 131.883 177.996 130.62 179.173 129.675C181.82 127.551 185.487 126.02 187.779 123.551C189.295 121.918 190.039 116.429 187.16 115.553C186.006 115.201 184.127 116.348 182.996 116.699C181.084 117.291 179.137 117.763 177.251 118.438C173.9 119.638 170.683 121.063 167.284 122.14C169.22 119.38 172.899 116.999 175.952 115.611ZM289.254 114.802C289.254 116.699 289.977 120.305 289.161 122.029C288.425 123.582 283.959 124.448 282.381 125.041C277.272 126.963 272.206 129.102 266.983 130.693C272.365 122.712 280.363 118.079 289.254 114.802ZM288.501 89.0314C287.177 90.9349 284.876 93.5159 282.183 92.6163C279.281 91.6465 277.008 87.1971 278.49 84.3736C279.757 81.9615 283.372 80.4482 285.604 82.3493C286.091 82.7636 286.409 83.8243 286.875 84.1486C287.175 84.356 287.649 83.8001 288.014 84.0227C289.094 84.679 289.509 86.2813 291.066 86.1473C291.787 86.0857 294.097 84.2003 294.57 83.7182C295.835 82.4279 295.394 81.1059 295.594 79.4103C295.87 77.0745 297.479 76.7161 299.332 75.511C301.095 74.3633 302.513 72.6515 304.257 71.5459C306.34 70.2258 305.146 71.8996 307.049 72.0653C307.391 72.0952 308.158 70.9536 308.754 70.9725C309.526 70.9971 309.861 71.5118 310.302 72.0729C311.26 73.2922 310.555 73.6748 312.225 73.9589C313.431 74.1639 314.178 73.287 315.209 73.304C316.052 72.348 317.301 70.3517 318.809 70.9413C319.829 71.3404 320.194 73.4811 320.413 74.3751C321.242 77.7639 321.18 81.7466 321.21 85.2221C319.271 83.8593 319.019 82.9436 318.414 80.7465C318.02 79.3189 317.069 77.2213 316.032 79.3658C315.738 79.9743 315.99 80.9075 315.795 81.5761C315.569 82.3517 315.028 82.7338 314.944 83.58C314.741 85.6321 316.42 86.3357 317.868 87.3348C316.516 88.7937 312.627 87.6928 313.664 90.8075C314.76 94.0988 318.973 92.2763 321.075 91.4505C322.866 98.2495 314.907 101.526 310.057 103.385C307.209 104.477 306.095 105.085 305.703 108.414C305.368 111.268 305.752 114.189 306.797 116.855C307.216 117.923 307.617 119.383 308.188 120.372C308.673 121.21 309.637 121.268 309.963 121.735C311.161 123.459 310.298 127.199 310.158 129.268C309.775 134.924 308.015 140.075 307.258 145.595C306.87 148.418 305.709 151.062 305.21 153.852C304.754 156.412 304.573 158.829 302.419 160.659C298.089 164.338 294.74 158.906 293.24 155.335C291.103 150.249 290.89 143.564 291.242 138.141C291.626 132.245 294.319 126.581 294.462 120.729C294.614 114.471 293.67 108.529 292.107 102.478C291.423 99.8339 290.428 97.4664 289.584 94.9094C288.895 92.8189 290.036 90.9311 288.501 89.0314ZM299.756 27.1191C299.756 27.1239 299.756 27.1281 299.757 27.1329C299.73 27.1021 299.702 27.0727 299.673 27.0367C299.704 27.0741 299.731 27.0997 299.756 27.1191ZM299.885 26.5329C299.821 26.0912 299.679 25.5353 299.583 25.2853C299.817 25.4297 300.083 25.5509 300.092 25.7024C300.117 26.1371 299.993 26.3416 299.885 26.5329ZM306.313 27.649C306.268 27.6746 306.224 27.7025 306.179 27.7271C306.071 27.7271 305.982 27.7044 305.902 27.6689C305.933 27.6755 305.966 27.6807 306.005 27.6835C306.109 27.6911 306.212 27.6755 306.313 27.649ZM309.673 26.5405C309.071 26.5358 308.437 26.4794 307.734 26.7848C307.846 26.7176 307.957 26.6575 308.07 26.6172C308.385 26.5055 309.051 26.5178 309.673 26.5405ZM275.594 191.925C275.723 189.094 275.721 188.244 277.943 186.419C279.795 184.897 281.587 183.3 283.458 181.801C287.602 178.481 292.03 174.965 296.741 172.486C299.381 171.097 306.583 168.298 304.763 173.781C303.045 178.955 299.731 183.551 296.877 188.148C293.968 192.833 291.058 197.523 288.036 202.136C286.721 204.143 285.334 206.111 284.076 208.154C282.839 210.164 282.711 211.52 280.173 210.687C278.329 210.082 276.245 209.345 274.505 208.558C272.977 207.867 273.068 207.444 273.026 205.646C273.972 200.998 275.374 196.736 275.594 191.925ZM287.418 135.276C286.775 137.866 282.168 138.174 279.682 138.677C279.255 138.763 277.09 139.464 276.686 139.224C275.888 138.749 276.28 137.376 275.941 136.711C274.08 133.073 274.052 137.724 273.522 138.82C272.072 141.821 269.849 135.812 269.034 134.341C268.407 133.209 267.735 132.633 268.384 131.683C268.925 130.892 271.932 130.349 272.856 130.007C276.224 128.762 279.584 127.493 282.943 126.223C284.389 125.676 288.842 122.813 288.793 125.565C288.313 128.731 288.186 132.178 287.418 135.276ZM284.899 166.203C283.482 166.644 279.633 168.412 278.2 167.578C276.99 166.875 277.826 164.407 277.962 163.123C278.218 160.703 278.181 158.069 278.044 155.641C277.841 152.054 277.544 151.771 281.078 150.807C282.443 150.434 286.613 148.414 287.627 149.553C288.101 150.085 287.901 151.776 288.005 152.42C288.231 153.815 288.619 155.178 289.128 156.495C290.007 158.771 291.291 160.814 292.634 162.838C290.225 164.322 287.592 165.365 284.899 166.203ZM276.897 140.844C277.509 139.964 280.555 139.838 281.562 139.625C283.341 139.248 285.122 138.876 286.902 138.499C286.997 140.67 288.223 146.338 286.663 147.904C285.787 148.785 282.854 149.012 281.613 149.318C280.26 149.651 278.905 149.979 277.55 150.306C277.397 148.214 277.269 146.121 277.046 144.034C276.965 143.267 276.4 141.561 276.897 140.844ZM277.249 169.5C278.185 168.421 280.719 168.452 282.128 168.123C284.372 167.597 286.498 166.88 288.622 165.991C289.81 165.494 292.152 163.792 293.465 164.223C293.833 164.344 294.604 165.862 294.884 166.147C295.362 166.635 295.981 166.965 296.536 167.35C298.065 168.411 298.994 168.741 300.797 169.101C291.364 172.974 283.785 179.865 275.982 186.222C275.428 185.757 275.736 181.601 275.797 180.648C275.909 178.878 275.985 177.087 276.118 175.311C276.226 173.852 276.254 170.647 277.249 169.5ZM305.896 207.182C305.612 208.794 305.568 211.008 304.878 212.497C304.246 213.861 304.323 213.766 302.64 213.807C300.514 213.858 298.075 214.215 296.017 213.567C297.855 209.502 299.385 205.085 301.9 201.376C302.69 200.212 304.215 197.23 305.868 197.408C307.526 197.586 307.162 199.252 307.031 200.456C306.785 202.705 306.29 204.955 305.896 207.182ZM314.178 143.775C315.455 135.007 315.347 126.434 315.347 117.603C317.384 117.873 319.629 117.703 321.593 118.28C320.959 120.305 319.13 122.131 320.94 124.053C322.779 126.006 327.064 126.862 329.549 127.581C332.459 128.423 335.426 129.453 338.417 129.953C339.761 130.178 341.225 130.396 342.581 130.135C344.728 129.722 344.918 129.152 346.329 131.366C346.336 131.378 346.349 131.396 346.356 131.409C345.948 131.174 344.655 131.316 345 131.326C345.05 131.504 345.126 131.682 345.17 131.847C344.789 131.533 343.947 131.269 343.83 131.248C342.426 131.001 340.644 131.632 339.292 131.944C336.26 132.646 333.251 133.41 330.314 134.448C327.842 135.322 325.394 136.301 323.036 137.449C321.216 138.336 317.013 139.897 316.438 142.068C315.337 146.232 326.323 149.396 329.002 150.806C331.533 152.137 330.734 154.111 330.762 156.755C330.793 159.628 331.053 162.473 330.854 165.339C330.7 167.56 330.53 167.216 328.318 167.176C326.661 167.146 325.004 167.079 323.348 167.178C321.013 167.317 318.615 167.641 316.423 168.491C313.144 169.763 306.846 175.818 313.122 177.663C315.706 178.423 319.038 178.145 321.686 177.962C323.984 177.803 327.583 176.756 329.799 177.547C330.955 177.219 331.372 177.64 331.05 178.808C331.103 179.61 331.157 180.411 331.21 181.212C331.317 182.824 331.424 184.436 331.531 186.048C331.75 189.347 331.969 192.646 332.188 195.945C330.262 193.213 327.613 187.821 323.509 188.437C319.987 188.966 317.904 194.434 316.771 197.256C315.848 199.549 315.253 201.953 314.63 204.339C314.031 206.634 313.812 209.879 312.717 211.958C311.638 214.007 310.139 213.319 307.93 213.53C305.169 213.793 306.282 212.246 306.721 209.896C307.389 206.317 309.755 200.142 307.474 196.806C304.561 192.548 300.446 200.438 299.327 202.569C298.281 204.561 297.389 206.625 296.588 208.727C296.071 210.084 295.653 213.013 294.318 213.755C292.683 214.665 290.092 213.211 288.59 212.735C286.827 212.176 284.9 211.943 283.089 211.577C288.245 203.496 293.606 195.537 298.608 187.361C301.109 183.273 304.263 178.981 305.637 174.357C305.897 173.481 306.217 172.644 306.11 171.712C306.018 170.917 304.825 169.667 304.901 169.116C305.013 168.298 306.653 167.615 307.419 166.756C310.083 163.769 310.752 160.215 311.58 156.419C312.48 152.287 313.571 147.949 314.178 143.775ZM324.244 118.714C328.171 117.867 332.632 120.126 335.916 121.95C338.083 123.153 343.864 125.668 344.087 128.615C344.027 127.815 338.71 128.314 337.659 128.34C333.167 127.366 328.375 126.053 324.184 124.112C322.657 123.405 320.865 122.713 321.421 120.899C321.785 119.706 323.131 118.954 324.244 118.714ZM319.689 176.683C317.206 176.54 308.194 176.638 312.729 172.133C315.569 169.311 320.798 168.699 324.575 168.684C325.928 168.679 327.262 168.785 328.606 168.923C328.974 168.967 329.343 169.011 329.712 169.055C330.838 168.83 331.19 169.297 330.767 170.454C330.968 171.131 331.292 175.147 330.698 175.712C329.91 176.461 327.4 176.131 326.475 176.203C324.205 176.381 321.967 176.697 319.689 176.683ZM332.87 210.816C326.339 211.79 319.819 213.033 313.197 213.136C314.186 208.303 315.337 203.481 317.137 198.877C318.287 195.935 320.375 189.583 324.4 189.896C327.613 190.145 331.363 195.657 332.258 198.473C333.426 202.143 332.87 206.999 332.87 210.816ZM349.641 137.353C349.511 138.023 346.58 139.227 345.953 139.592C341.432 142.222 337.405 146.122 334.699 150.553C334.398 148.843 334.446 145.599 333.014 144.384C330.494 142.245 331.012 147.037 330.711 148.5C330.428 149.873 330.779 149.651 329.597 149.773C328.549 149.881 325.873 147.915 324.905 147.419C322.23 146.05 319.667 144.559 317.097 143.004C319.226 139.483 325.503 137.867 329.078 136.459C334.215 134.435 339.278 133.399 344.714 132.561C345.624 133.034 345.742 131.969 346.421 131.73C346.459 131.675 346.472 131.629 346.474 131.586C347.272 132.774 349.835 136.356 349.641 137.353ZM356.292 184.8C358.822 196.44 359.452 208.548 362.647 220.047C365.686 230.978 368.384 241.86 371.894 252.642C373.916 258.853 375.793 265.126 378.496 271.09C380.38 275.25 381.876 284.122 386.467 286.069C389.473 287.343 390.806 286.215 390.485 283.163C390.206 280.508 388.831 278.839 387.696 276.546C387.301 275.747 386.013 273.493 386.153 272.645C386.328 271.591 386.595 271.705 387.693 271.184C390.023 270.077 392.346 269.328 394.827 268.687C393.826 270.242 391.827 272.465 391.666 274.365C391.533 275.934 392.658 278.811 394.215 279.413C395.686 279.981 397.417 278.782 398.676 278.051C400.134 277.203 401.524 276.968 403.128 276.366C401.083 279.317 397.732 281.668 399.167 285.726C400.697 290.056 405.446 286.515 408.482 286.026C407.615 289.38 403.767 293.205 401 295.072C399.142 296.325 397.125 297.456 395.131 298.47C394.359 298.862 393.345 299.102 392.636 299.57C392.367 299.748 391.913 300.503 391.668 300.621C388.224 302.287 383.526 302.712 379.779 303.512C375.65 304.394 372.096 304.61 367.846 304.405C364.329 304.236 360.434 302.073 357.495 300.257C355.261 298.876 354.935 297.189 354.239 294.751C353.087 290.711 352.055 286.645 350.954 282.591C350.006 279.096 349.564 275.739 348.921 272.193C347.56 264.678 346.933 257.044 345.472 249.542C344.021 242.091 343.536 234.542 343.134 226.926C342.941 223.257 342.344 219.515 342.163 215.918C342.015 212.992 342.065 210.047 342.081 207.038C342.093 204.923 341.344 202.809 341.395 200.686C341.44 198.809 341.612 197.119 341.414 195.223C340.992 191.184 340.662 187.192 340.345 183.147C339.726 175.261 337.905 167.479 337.179 159.627C336.866 156.231 340.588 152.975 343.11 150.997C345.798 148.89 347.954 145.93 350.912 144.271C352.008 157.889 353.387 171.438 356.292 184.8ZM311.748 330.406C308.831 331.707 305.916 333.011 302.998 334.311C300.854 335.266 298.04 337.23 295.683 337.053C297.358 334.78 298.414 332.18 300.201 329.973C301.985 327.769 303.458 325.427 305.071 323.098C307.192 325.688 309.359 328.06 311.748 330.406ZM312.368 318.977C316.78 316.647 323.049 312.219 328.22 313.055C331.945 313.656 336.163 316.387 338.413 319.393C339.467 320.803 340.523 322.119 341.73 323.501C342.836 324.768 343.404 324.604 342.437 325.925C341.693 326.941 339.939 327.629 338.797 328.022C338.797 325.798 339.488 323.57 336.82 323.789C335.767 323.876 334.54 324.128 333.491 324.299C332.586 324.447 332.063 324.84 331.292 325.022C330.47 325.216 329.487 324.988 328.635 325.055C327.167 325.17 325.993 325.759 324.603 326.067C321.727 326.705 319.299 327.587 316.498 328.529C315.217 326.568 314.141 324.211 312.4 322.608C310.455 320.815 309.625 320.425 312.368 318.977ZM274.52 25.3156C274.943 25.2711 275.427 25.0073 275.754 24.4576C275.181 25.4197 274.844 25.4633 274.52 25.3156ZM261.295 26.8478C261.808 26.9411 262.315 27.0552 262.739 27.2546C263.157 27.4506 263.382 27.6741 263.605 27.8701C263.501 27.8246 263.388 27.7759 263.261 27.7228C262.71 27.4923 262.005 27.076 261.295 26.8478ZM252.475 99.8107C252.441 99.7638 252.408 99.7207 252.375 99.6781C252.408 99.7207 252.441 99.7638 252.476 99.8107H252.475ZM250.761 100.06C250.599 100.001 250.463 99.9035 250.355 99.7614C250.463 99.9035 250.599 100.001 250.761 100.06C250.868 100.099 250.986 100.121 251.113 100.127C250.986 100.121 250.868 100.099 250.761 100.06ZM250.075 98.6548C250.074 98.8589 250.09 99.0384 250.121 99.1961C250.09 99.0384 250.074 98.8589 250.075 98.6548ZM252.151 99.4153C252.109 99.3713 252.069 99.3305 252.027 99.2927C252.069 99.3305 252.109 99.3717 252.151 99.4153ZM251.798 99.107C251.732 99.0625 251.666 99.0223 251.598 98.9887C251.666 99.0223 251.732 99.0625 251.798 99.107ZM325.139 28.7646C325.234 28.792 325.316 28.8039 325.392 28.8081C325.289 28.8185 325.205 28.8029 325.139 28.7646ZM327.408 30.2869C327.132 30.0307 326.969 29.7797 326.885 29.5283C326.927 29.5548 326.974 29.579 327.027 29.5998C327.109 29.5184 327.191 29.4369 327.273 29.355C327.159 29.5671 327.12 29.7717 327.208 29.9554C327.631 30.8418 328.148 29.4942 328.786 30.1609C328.308 30.1022 327.725 30.2869 327.408 30.2869C326.671 31.2992 325.934 32.312 325.198 33.3244C326.195 33.823 326.508 33.2074 327.065 34.1161C327.092 34.1601 327.116 34.2681 327.137 34.4106C326.906 33.7482 326.301 33.8755 325.198 33.3244C325.934 32.312 326.671 31.2992 327.408 30.2869ZM329.317 32.5156C329.386 32.4645 329.427 32.3939 329.453 32.3007C329.471 32.2382 329.482 32.1657 329.489 32.0819C329.482 32.1657 329.471 32.2382 329.453 32.3007C329.427 32.3939 329.386 32.4645 329.317 32.5156C329.272 32.5497 329.214 32.5753 329.141 32.5928C329.214 32.5753 329.272 32.5497 329.317 32.5156ZM329.526 31.4394C329.517 31.5715 329.511 31.6903 329.506 31.7969C329.511 31.6903 329.517 31.5715 329.526 31.4394ZM328.436 34.136C328.468 34.1947 328.503 34.2477 328.541 34.2969C328.504 34.2463 328.468 34.1947 328.436 34.136ZM327.328 38.12C326.275 37.5551 327.189 36.8439 327.233 35.976C327.237 35.8988 327.238 35.8335 327.24 35.7624C327.247 35.9722 327.249 36.1441 327.244 36.2284C327.173 37.4547 326.303 37.7961 327.885 38.1678C327.993 38.1934 328.134 38.2067 328.293 38.2128C327.888 38.2422 327.536 38.2317 327.328 38.12ZM343.663 47.234C343.597 46.7325 345.94 45.6383 346.241 45.5038C345.871 45.669 343.6 46.7586 343.663 47.234ZM346.327 42.7935C346.312 42.7868 346.294 42.7849 346.278 42.7778C346.282 42.7409 346.278 42.7063 346.278 42.6704C346.289 42.7158 346.304 42.758 346.327 42.7935ZM347.574 46.8433C347.587 46.7889 347.612 46.6435 347.64 46.4702C347.681 46.6842 347.727 46.885 347.77 47.0602C347.718 46.992 347.657 46.9205 347.574 46.8433ZM345.755 46.8125C345.753 45.9626 346.019 46.144 346.185 46.1695C346.034 46.3973 345.754 46.4399 345.755 46.8125ZM343.283 48.6791C343.529 48.6308 343.736 48.7724 343.927 48.9357C343.511 48.8254 343.169 48.7009 343.283 48.6791ZM341.273 53.5339C341.234 53.5472 341.2 53.5557 341.164 53.5661C341.2 53.5557 341.234 53.5472 341.273 53.5339ZM341.476 53.461C341.448 53.4719 341.425 53.4795 341.398 53.4889C341.425 53.4795 341.448 53.4719 341.476 53.461ZM341.096 53.5855C341.045 53.5983 340.997 53.6073 340.951 53.6135C340.997 53.6073 341.045 53.5983 341.096 53.5855ZM342.641 82.9654C342.745 82.7902 342.968 82.7324 343.221 82.7045C342.903 82.8262 342.658 83.0871 342.6 83.4649C342.537 83.3252 342.521 83.1666 342.641 82.9654ZM344.483 77.531C344.466 77.5258 344.448 77.5187 344.431 77.5173C343.915 77.477 343.691 77.8113 343.635 78.3222C343.67 77.8766 343.819 77.513 344.204 77.3946C344.184 77.3544 344.166 77.317 344.148 77.2777C344.246 77.3671 344.359 77.4514 344.483 77.531ZM343.872 80.2825C343.861 80.2219 343.848 80.1556 343.834 80.0869C343.892 80.3299 343.958 80.5718 344.025 80.8043C343.959 80.6173 343.901 80.4388 343.872 80.2825ZM344.321 71.822C344.279 71.8414 344.231 71.8584 344.182 71.8731C344.231 71.8584 344.279 71.8419 344.321 71.822ZM344.447 71.7472C344.418 71.7689 344.384 71.7879 344.349 71.8059C344.384 71.7879 344.417 71.7685 344.447 71.7472ZM344.157 71.8812C344.098 71.8973 344.033 71.9105 343.961 71.9195C344.032 71.9105 344.098 71.8977 344.157 71.8812ZM344.687 65.7048C344.694 65.933 344.695 66.1608 344.702 66.3762C344.665 66.1646 344.661 65.9558 344.687 65.7048ZM446.919 370.324C445.511 369.056 440.791 368.972 438.918 368.616C442.972 364.732 446.019 354.914 438.274 353.654C436.56 353.375 436.075 354.036 435.682 352.092C435.441 350.901 435.932 349.803 435.342 348.616C433.94 345.799 428.614 346.113 425.954 345.708C426.589 343.47 428.148 339.474 425.8 337.657C423.947 336.224 420.09 338.137 418.121 338.751C412.801 340.408 407.397 342.3 402.91 345.64C400.899 342.922 398.796 340.24 397.109 337.301C395.5 334.497 394.503 331.397 392.99 328.542C391.474 325.68 389.864 322.304 387.746 319.844C385.953 317.761 383.493 317.555 381.127 316.56C375.124 314.039 369.923 314.183 363.65 315.115C357.381 316.048 351.946 319.719 346.636 322.922C344.552 315.885 339.731 308.24 332.258 306.069C328.904 305.095 325.376 306.035 322.31 307.567C318.51 309.465 315.523 312.691 311.807 314.488C316.044 307.226 321.392 300.396 326.048 293.538C328.602 289.776 331.828 286.419 334.323 282.586C336.865 278.679 338.739 274.335 340.583 270.071C342.141 274.051 342.405 278.238 343.836 282.232C345.15 285.898 346.049 289.66 347.543 293.266C349.103 297.03 350.481 300.744 352.589 304.247C353.791 306.245 356.755 312.469 358.94 308.477C363.801 311.764 368.494 313.75 374.574 313.606C377.358 313.54 380.458 313.452 383.123 312.828C385.829 312.194 388.415 311.341 391.104 310.734C393.231 310.253 395.176 308.952 397.112 307.989C399.338 306.881 401.543 304.889 403.262 303.142C405.39 300.979 407.589 298.896 409.728 296.747C411.846 294.62 411.693 292.449 412.825 289.805C414.007 287.047 414.514 284.609 412.951 281.826C411.805 279.787 409.779 280.068 409.305 278.003C408.855 276.044 409.292 274.197 408.063 272.4C407.13 271.036 403.774 270.124 403.763 268.732C403.753 267.581 404.948 266.563 404.9 265.182C404.858 263.95 404.255 261.968 403.593 260.924C402.35 258.963 400.456 258.896 398.321 259.496C393.161 260.944 388.102 264.667 384.554 268.578C379.689 255.236 375.857 241.601 372.298 227.955C370.726 221.927 369.495 215.82 368.496 209.674C367.506 203.588 366.007 197.458 365.338 191.34C364.937 187.672 363.809 184.239 363.282 180.615C362.846 177.614 362.555 174.59 362.126 171.588C361.176 164.937 359.857 158.387 358.83 151.751C358.263 148.084 356.983 144.875 355.998 141.344C355.153 138.315 354.65 135.726 353.238 132.865C350.544 127.408 347.773 120.724 342.539 117.257C337.885 114.173 333.37 111.596 327.697 110.964C324.37 110.593 321.688 111.376 318.434 111.736C315.553 112.054 313.086 113.649 310.276 114.223C310.276 111.549 310.015 111.477 312.452 110.526C313.856 109.978 315.226 109.376 316.656 108.9C318.163 108.398 319.304 107.908 320.589 106.985C322.106 105.896 321.149 106.242 322.967 106.618C325.832 107.212 324.987 106.523 326.872 105.094C327.968 104.262 329.088 104.77 330.371 104.936C331.568 105.091 333.538 105.621 334.452 104.541C335.147 103.721 334.39 102.313 334.902 101.421C335.71 100.012 338.027 100.077 339.263 99.1307C340.617 98.0961 340.739 96.9299 340.446 95.3389C340.243 94.2375 338.509 91.791 338.606 90.8435C338.672 90.2123 339.004 90.0276 339.432 89.976C342.821 90.1474 342.657 89.6361 341.831 86.6298C341.782 87.0749 341.753 87.4537 341.719 87.7799C341.71 87.3131 341.714 86.877 341.831 86.6298C341.919 86.4432 342.236 86.323 342.523 86.1729C342.447 86.2482 342.368 86.3249 342.275 86.411C342.42 87.0498 342.462 88.7198 343.075 89.1739C343.513 89.4992 345.051 89.4661 345.361 88.9225C346.01 87.787 343.779 87.1431 343.691 86.3002C346.254 86.0857 345.38 84.8347 344.04 83.5582C343.987 83.2078 344.19 83.0421 344.651 83.061C344.422 82.8214 344.139 82.6855 343.856 82.6415C344.056 82.6083 344.229 82.5496 344.32 82.4076C344.4 82.2826 344.406 82.1102 344.376 81.9166C344.426 82.0657 344.47 82.1936 344.501 82.292C346.712 83.1855 345.576 78.4439 344.659 77.6356C344.73 76.3202 344.8 75.0048 344.869 73.6895C344.239 74.1061 343.759 74.7558 343.594 75.4338C343.617 74.8079 343.982 74.2761 344.869 73.6895C343.448 73.063 343.309 72.9868 344.835 72.8533C346.1 74.0081 345.923 73.0493 346.707 72.3438C346.66 72.3859 347.893 71.044 347.81 71.249C348.396 69.7982 347.75 66.7366 345.389 67.7338C346.671 68.8825 345.385 69.0941 344.937 70.0818C344.922 70.115 344.91 70.15 344.898 70.1846C344.921 70.0662 344.954 69.9521 345.002 69.847C345.793 68.1457 345.98 69.4521 345.11 67.5164C345.109 67.515 345.109 67.5136 345.108 67.5117C345.338 67.6282 345.698 67.6035 346.269 67.3625C346.981 66.4918 347.197 66.8478 347.579 65.7261C347.913 64.7445 347.758 64.075 347.09 63.7099C347.167 63.7298 347.243 63.7521 347.319 63.7715C347.615 63.0167 347.205 62.2975 346.522 61.9504C346.246 62.4021 345.971 62.8543 345.696 63.3065C345.82 63.3468 345.945 63.3827 346.071 63.4206C346.07 63.4206 346.068 63.4206 346.067 63.4202C345.192 63.3188 344.838 63.476 344.706 63.8804C344.662 63.699 344.651 63.5205 344.751 63.3586C344.858 63.1858 345.613 63.4419 345.696 63.3065C347.051 61.082 345.62 59.2301 343.438 58.097C342.61 57.6666 340.976 57.652 340.684 56.6448C340.477 55.9331 341.506 54.211 341.704 53.3668C343.226 52.6679 340.416 52.2588 340.397 52.2559C340.313 53.2517 340.367 53.6925 340.942 53.6153C340.363 53.694 340.313 53.2484 340.397 52.2559C341.223 52.3828 343.661 52.1551 344.856 51.3416C346.834 51.3979 347.851 51.7412 349.051 50.0238C347.879 49.5366 346.498 49.7989 345.446 49.0508C345.495 49.2757 345.534 49.4798 345.559 49.6682C345.468 49.3898 345.27 49.1502 345.004 48.9229C345.176 49.0707 345.087 49.118 344.883 49.1114C344.922 49.0588 344.963 48.9982 345.004 48.9229C345.075 48.0896 345.687 48.4291 346.307 48.4812C346.291 48.2132 346.185 47.9878 346.07 47.7643C346.184 47.9788 346.29 48.1985 346.307 48.4812C346.699 48.2312 347.092 47.9812 347.485 47.7307C347.698 47.6686 347.826 47.582 347.876 47.4731C347.877 47.475 347.877 47.4773 347.878 47.4792C349.754 48.0399 349.183 44.0596 348.32 44.08C348.088 44.0857 347.921 44.1709 347.797 44.3058C347.823 43.9389 347.886 43.5506 348.037 43.007H348.035H348.037C348.125 42.7731 348.212 42.5392 348.3 42.3053C347.827 42.3356 346.296 41.4203 346.268 42.5122C346.24 42.3152 346.162 42.1315 346.028 41.9644C346.165 40.7565 345.455 40.8592 344.354 40.5216C343.946 40.3961 343.495 39.6125 343.034 39.9416C342.342 40.4359 342.759 40.9014 343.204 41.2536C343.138 41.6642 342.942 41.9923 342.615 42.2376C342.565 42.1907 342.517 42.1547 342.47 42.1182C342.776 41.9388 343.034 41.6533 343.204 41.2536C341.789 40.1329 341.192 40.8663 340.103 41.7679C340.536 42.1291 341.039 42.3237 341.52 42.3436C341.496 42.3967 341.471 42.4502 341.45 42.5136C340.904 42.4454 340.455 42.1969 340.103 41.7679C341.259 40.81 341.155 40.2228 339.749 39.6546C339.274 39.4629 338.973 39.8899 338.385 39.6641C338.093 39.5519 337.883 39.0424 337.598 38.8738C335.47 37.6129 332.915 38.3307 330.649 38.0319C330.932 37.9955 331.186 37.96 331.379 37.9344C331.155 37.1522 330.546 36.8136 329.907 36.5754C329.907 36.1299 329.908 35.6838 329.907 35.2383C329.817 35.2179 329.73 35.2084 329.646 35.2061C329.794 35.0886 329.882 34.9291 329.861 34.6573C329.314 34.8552 328.851 34.7094 328.551 34.313C329.146 35.074 330.305 34.6757 330.659 33.6999C331.03 32.6771 330.235 31.99 329.544 31.231C329.56 30.5018 329.251 30.2395 328.851 30.1694C329.572 28.7508 329.734 29.4544 328.96 27.6802C328.896 26.4846 327.883 26.9188 327.199 27.6869C327.271 27.5107 327.345 27.3298 327.415 27.1414C326.878 27.1049 326.34 27.0685 325.803 27.0311C325.94 27.4676 326.241 28.2451 325.845 28.6159C326.108 28.2366 325.921 27.408 325.803 27.0311C325.145 26.6636 324.487 26.2962 323.828 25.9278C323.884 26.0457 324.035 26.4894 324.223 26.9918C323.716 26.2858 323.303 25.8483 322.613 25.1214C322.277 24.7668 320.958 23.0645 320.592 22.9585C318.357 22.3098 316.667 26.6864 313.94 26.0874C312.332 25.7341 313.083 25.3175 311.564 25.6129C310.732 24.531 305.303 26.2323 305.094 27.2617C305.196 27.2342 305.274 27.2228 305.337 27.2209C304.725 27.4406 304.193 27.7787 303.6 28.0074C302.114 28.5813 302.998 28.7309 301.311 27.765C300.735 27.4354 300.523 27.5387 300.299 27.5084C301.025 27.1816 301.375 24.9202 301.386 24.1138C301.412 22.1871 301.157 22.5252 301.908 21.1435C301.214 21.1326 300.725 21.0735 300.36 21.2387C300.464 20.911 300.539 20.5895 300.537 20.2785C300.913 19.2595 300.582 18.0591 299.42 17.7755C297.661 17.3461 297.317 19.8731 298.591 20.287C297.372 19.8911 297.861 18.2926 296.202 18.0762C296.81 18.0449 297.188 18.16 297.755 18.8579C297.943 18.4791 298.13 18.1008 298.318 17.722C296.997 17.5838 296.387 17.4715 295.32 18.0928C294.276 18.2793 293.54 19.0365 292.753 19.7756C290.607 21.7884 288.68 23.753 286.704 25.9368C285.689 23.8491 284.569 22.3292 282.922 24.6654C281.434 26.7739 280.231 29.6884 279.458 32.1401C277.913 31.4304 278.565 31.1988 277.917 30.0492C278.59 31.169 277.905 31.4266 279.458 32.1401C279.612 31.651 279.767 31.1614 279.921 30.6723C278.568 29.1291 278.626 27.5959 277.161 25.9505C276.999 26.478 277.466 27.2295 277.547 27.7049C277.638 28.2319 277.055 28.5979 277.187 29.1647C277.734 28.9644 277.861 29.0851 277.879 29.3043C277.86 29.0856 277.731 28.9658 277.187 29.1647C276.97 28.239 277.509 27.747 277.209 26.7133C277.087 26.2957 276.91 25.9903 276.697 25.6948C277.629 24.1346 274.615 23.0536 273.914 23.9822C273.826 24.0991 273.766 24.208 273.719 24.3132C272.543 23.7833 272.18 24.9107 271.631 25.7573C271.5 26.022 271.37 26.2872 271.239 26.5524C270.546 27.122 269.904 28.3138 269.382 29.0936C268.267 30.7608 267.799 33.2008 266.434 34.59C266.48 33.6951 266.967 31.7112 265.362 32.5114C265.892 32.2472 265.968 31.9261 265.852 31.554C265.952 31.6103 266.06 31.6614 266.185 31.7031C266.411 31.7254 266.637 31.7471 266.863 31.7689C266.834 30.5018 266.005 29.6689 265.025 28.9951C265.025 29.3261 265.014 29.6666 265.036 29.9928C265.03 29.981 265.025 29.9696 265.02 29.9578C264.589 28.926 264.772 28.622 264.399 28.3057C264.545 28.3408 264.713 28.3659 264.919 28.3758C263.72 26.3459 262.126 26.0216 259.922 26.5935C260.072 26.6291 260.23 26.6594 260.39 26.6892C260.141 26.6897 259.898 26.7342 259.673 26.8445C258.817 27.2617 257.551 29.6595 256.957 30.4909C254.867 33.4172 253.893 37.0025 252.799 40.3848C252.492 41.3365 252.025 43.5672 250.837 43.8863C249.456 44.2575 247.993 42.0046 246.777 41.2517C242.887 38.8421 240.952 43.1685 240.353 46.6009C239.459 48.1194 239.665 49.2899 240.954 50.0092C240.593 49.4869 240.427 48.9305 240.359 48.3566C240.53 49.3321 241.343 49.6701 241.489 50.0878C241.569 50.3169 241.681 51.7071 241.679 51.9865C242.343 52.4832 242.393 52.8502 241.829 53.0874C241.483 53.3237 241.16 53.5879 240.858 53.8796C239.926 54.8635 239.935 56.2277 239.082 57.1846C238.118 58.267 237.233 57.7888 236.778 59.5682C235.998 62.6166 237.919 67.2195 241.375 67.5112C240.965 68.7115 240.434 69.9289 240.128 71.16C239.721 72.7979 239.749 72.9636 240.52 74.5304C234.771 73.6748 235.221 79.7683 238.497 82.7613C239.274 83.4706 240.124 83.9124 241.126 84.2268C241.851 84.4545 244.04 84.3276 244.561 85.0161C245.659 86.4679 243.207 88.3552 242.99 89.9751C242.968 90.1408 242.959 90.4254 242.966 90.7559C242.061 91.8653 242.106 91.9572 243.399 92.9946C244.108 93.9085 246.297 93.6897 246.963 94.5638C247.987 95.909 245.703 98.0743 246.848 99.6459C247.759 100.895 248.708 100.117 250.166 100.646C250.871 100.968 251.577 101.292 252.281 101.617C252.611 101.387 252.972 101.243 253.365 101.184C254.188 101.599 253.402 102.33 254.44 102.574C254.979 102.744 256.224 103.391 256.769 103.056C255.997 103.531 255.478 104.708 255.035 106C254.613 106.692 254.223 107.453 254.378 108.024C254.118 108.815 253.852 109.537 253.534 110.04C255.328 110.314 255.117 112.006 256.359 112.935C258.037 114.373 258.316 113.038 257.92 112.337C258.087 112.422 258.26 112.533 258.438 112.659C258.471 112.683 258.111 113.537 258.465 113.736C258.96 114.016 258.96 113.735 259.475 113.73C259.96 113.724 260.663 112.995 261.256 112.934C261.571 112.902 262.504 113.334 262.697 113.206C263.234 112.849 263.192 112.458 262.983 111.985L263.223 112.465C263.802 113.977 264.093 113.637 264.969 113.204C264.732 113.321 265.657 112.63 265.846 112.686C265.415 111.487 263.702 111.613 262.647 111.313C263.316 111.503 264.401 111.51 265.016 111.776C266.045 112.219 265.72 112.671 266.938 112.809C267.451 112.867 269.544 112.298 269.913 111.925C269.948 111.889 269.972 111.846 269.991 111.798C270.181 111.495 270.371 111.191 270.56 110.887C271.334 110.977 270.496 112.167 271.71 111.694C272.617 111.339 272.175 110.846 271.887 110.308C271.793 110.132 271.686 110.007 271.574 109.916C272.827 110.216 274.317 111.905 276.027 111.432C276.992 111.165 277.045 110.506 277.752 109.89C278.697 109.066 278.99 109.193 280.134 108.795C280.827 108.553 281.565 108.021 282.263 107.897C283.399 107.694 283.085 107.82 284.026 108.299C284.589 108.586 284.909 109.123 285.62 109.227C286.268 109.322 287.287 108.575 287.813 108.78C289.242 109.339 288.878 111.348 288.959 112.671C281.725 110.366 273.27 114.051 267.947 119.11C266.503 120.482 265.559 122.108 264.276 123.6C262.884 125.218 261.571 125.954 261.376 128.26C261.207 130.248 262.103 131.442 261.396 133.352C260.717 135.183 259.978 136.821 259.482 138.73C257.113 147.845 257.039 157.311 255.283 166.552C253.659 175.103 251.339 182.721 247.516 190.559C245.744 194.193 244.258 196.417 240.371 197.95C237.226 199.189 234.924 197.565 233.387 194.738C229.251 187.13 228.663 179.306 228.713 170.821C228.737 166.744 229.202 162.668 229.594 158.615C230.001 154.414 229.696 150.49 229.404 146.296C228.819 137.886 226.902 130.674 224.019 122.765C222.652 119.014 221.498 115.357 218.206 112.917C216.361 111.55 214.509 109.841 212.347 108.659C210.617 107.713 209.587 106.859 207.615 106.436C206.317 106.157 205.135 105.728 203.882 105.324C200.926 104.372 197.507 104.077 194.406 104.088C187.166 104.112 179.22 106.553 172.703 109.682C169.458 111.241 165.934 113.561 163.797 116.517C162.915 117.737 162.314 119.09 161.715 120.462C160.998 122.103 161.223 122.403 159.705 122.346C158.754 122.31 157.69 121.429 156.601 121.382C155.408 121.331 154.535 121.747 153.425 122.055C152.016 122.446 150.691 122.796 149.438 123.607C146.398 125.572 143.826 128.705 141.503 131.438C137.25 136.441 133.402 142.047 129.423 147.142C125.505 152.159 120.744 156.611 114.658 158.886C112.336 159.754 109.765 159.929 107.395 160.631C106.355 160.938 105.095 161.756 104.005 161.741C102.292 161.72 102.424 160.88 101.831 159.519C101.126 157.902 100.106 156.644 98.8323 155.436C93.1794 150.078 86.1492 158.017 86.5854 164.134C86.8407 167.707 89.5158 170.064 89.4215 173.571C89.333 176.853 89.5281 180.181 90.6971 183.295C92.0091 186.788 95.2355 190.41 98.0807 192.786C100.716 194.987 104.018 195.455 107.338 195.822C108.86 195.99 110.439 196.443 111.911 196.417C113.171 196.394 114.318 195.883 115.605 195.935C117.789 196.023 118.959 196.009 121.005 195.233C122.523 194.657 123.892 194.338 125.545 194.375C125.545 197.862 125.766 201.272 126.065 204.747C126.104 205.206 126.421 206.398 126.21 206.807C125.95 207.312 125.641 206.979 125.317 207.342C124.544 208.208 123.984 208.633 123.405 209.759C121.818 212.846 121.332 216.299 121.95 219.741C122.436 222.439 124.021 223.551 123.646 226.418C123.205 229.786 122.386 233.224 122.228 236.614C122.152 238.232 122.133 239.453 121.791 241.022C121.594 241.932 120.929 243.572 120.983 244.493C121.016 245.062 121.618 245.314 121.619 245.834C121.621 246.288 121.096 246.228 121.06 246.618C120.95 247.792 120.887 248.855 120.912 250.036C120.945 251.633 120.789 253.221 120.849 254.818C120.894 256.034 120.611 258.914 121.975 258.439C121.611 259.299 121.515 260.127 121.479 260.952C121.46 260.872 121.452 260.79 121.459 260.707C121.543 259.754 121.57 259.395 121.975 258.439L121.197 258.71C120.721 259.94 121.305 261.145 121.436 262.368C121.432 262.491 121.427 262.613 121.42 262.736C121.31 264.514 121.444 266.254 121.577 268.027C121.879 272.076 122.022 276.59 123.115 280.228C124.314 284.216 123.931 289.229 124.393 293.622C124.922 298.649 125.78 303.595 126.419 308.603C126.99 313.075 127.265 317.928 128.244 322.283C129.047 325.85 129.726 329.324 130.157 333.073C130.752 338.272 132.648 342.232 134.733 346.956C135.615 348.955 135.676 348.923 134.057 350.384C133.378 350.995 132.803 351.711 132.112 352.308C130.729 353.506 129.217 354.203 127.401 354.419C122.928 354.95 118.409 356.541 115.897 360.402C113.468 364.134 115.042 368.507 116.859 372.31C114.461 372.514 107.974 372.367 109.492 376.742C110.529 379.733 116.06 378.731 118.503 378.763C122.073 378.811 125.668 378.636 129.207 378.587C130.817 378.565 130.982 378.398 132.55 379.013C134.029 379.592 135.157 379.656 136.756 379.55C138.46 379.439 140.162 379.69 141.812 379.444C143.893 379.136 145.188 378.875 147.278 379.245C148.789 379.513 150 379.381 151.507 379.182C153.178 378.961 154.761 379.094 156.485 379.048C160.512 378.94 164.508 379.016 168.538 379.061C172.455 379.104 176.375 378.569 180.265 378.744C187.049 379.051 193.953 378.772 200.769 378.931C203.912 379.004 206.34 380.835 209.492 380.647C212.694 380.456 215.94 380.426 219.118 379.978C224.589 379.207 229.862 378.115 235.42 377.83C238.934 377.651 242.022 379.165 245.327 380.116C246.525 380.46 247.603 380.299 248.722 380.555C249.779 380.796 250.863 381.487 251.979 381.773C254.621 382.451 257.146 382.709 259.467 382.772C259.768 383.328 260.115 383.397 260.508 382.976C260.668 382.885 260.827 382.794 260.987 382.704C261.727 382.605 262.255 382.271 263.033 382.222C264.23 382.145 265.456 382.309 266.567 382.202C268.894 381.977 271.078 381.83 273.652 382.094C275.178 382.252 276.513 382.03 278.016 382.058C277.999 382.057 280.077 382.463 280.124 382.445C280.308 382.373 280.599 381.86 280.719 381.837C280.676 381.345 280.824 381.123 281.163 381.171C281.435 381.111 281.615 381.254 281.702 381.598C281.62 381.608 282.349 381.977 282.401 381.985C282.443 381.991 284.32 381.769 284.453 381.719C284.991 381.517 285.22 380.93 285.65 380.842C286.159 380.738 286.462 381.3 286.903 381.276C287.876 381.224 287.761 380.79 288.508 380.655C291.131 380.182 294.344 380.797 297.053 380.801C299.754 380.806 302.439 380.558 305.039 380.444C308.236 380.303 311.368 380.911 314.589 380.479C317.652 380.069 320.717 379.89 323.804 379.76C330.254 379.488 336.874 379.776 343.264 379.016C349.919 378.226 356.684 379.016 363.349 378.897C370.376 378.771 377.441 378.708 384.465 378.419C391.457 378.132 398.42 377.299 405.384 377.131C407.156 377.089 408.895 376.666 410.66 376.537C412.276 376.42 413.865 376.677 415.494 376.535C418.461 376.275 421.159 376.474 424.141 376.429C427.475 376.377 430.715 375.868 434.031 375.663C437.384 375.456 440.705 375.93 444.03 375.268C445.848 374.906 449.239 372.413 446.919 370.324Z" fill="black"/>
<path fill-rule="evenodd" clip-rule="evenodd" d="M315.27 73.3308C315.265 73.3308 315.261 73.3313 315.257 73.3308C315.24 73.3504 315.222 73.3716 315.206 73.3902L315.27 73.3308Z" fill="black"/>
<path fill-rule="evenodd" clip-rule="evenodd" d="M343.041 57.957C343.462 56.4909 342.396 55.4408 341.681 54.3021C341.26 56.8857 339.968 56.7738 343.041 57.957Z" fill="black"/>
<path fill-rule="evenodd" clip-rule="evenodd" d="M265.677 112.999C265.688 113.028 265.702 113.055 265.711 113.086C265.723 113.034 265.709 113.008 265.677 112.999Z" fill="black"/>
<path fill-rule="evenodd" clip-rule="evenodd" d="M254.035 111.064C254.131 111.28 254.341 112.773 254.493 112.78C255.844 112.844 254.197 110.318 253.333 110.171C252.085 110.978 254.065 111.13 254.035 111.064Z" fill="black"/>
<path fill-rule="evenodd" clip-rule="evenodd" d="M253.963 102.339C253.874 101.198 253.49 101.053 252.398 101.608C252.725 102.325 253.113 102.222 253.963 102.339Z" fill="black"/>
<path fill-rule="evenodd" clip-rule="evenodd" d="M238.84 74.4049C239.361 74.4919 239.883 74.5789 240.404 74.6654C240.098 73.9697 239.792 73.273 239.485 72.5768C239.27 73.1865 239.055 73.7957 238.84 74.4049Z" fill="black"/>
<path fill-rule="evenodd" clip-rule="evenodd" d="M249.544 303.618C249.545 303.617 249.545 303.616 249.546 303.615C249.508 303.63 249.502 303.633 249.544 303.618Z" fill="black"/>
<path fill-rule="evenodd" clip-rule="evenodd" d="M143.154 161.417C144.258 159.568 146.353 157.284 148.737 158.052C150.964 158.771 151.58 161.694 152.54 163.533C154.407 167.108 154.989 163.27 155.402 161.1C155.065 156.754 153.377 149.681 147.664 150.43C143.319 151.001 139.567 157.989 140.395 162.121C141.09 165.595 142.263 162.909 143.154 161.417Z" fill="black"/>
<path fill-rule="evenodd" clip-rule="evenodd" d="M307.815 79.5145C305.682 78.752 305.684 81.0602 305.601 82.7951C305.526 84.3893 305.773 88.1286 307.782 88.698C309.784 89.266 309.973 85.9635 310.283 84.6283C309.817 83.0433 309.558 80.1376 307.815 79.5145Z" fill="black"/>
<path fill-rule="evenodd" clip-rule="evenodd" d="M310.283 76.051C308.717 74.6652 307.672 74.2407 305.672 75.1358C304.642 75.5964 303.172 76.5983 303.011 77.8619C302.507 81.7944 308.903 76.858 310.283 76.051Z" fill="black"/>
<path fill-rule="evenodd" clip-rule="evenodd" d="M310.61 99.6091C314.259 100.553 314.492 95.5589 310.434 95.5508C307.719 95.5455 308.571 99.0822 310.61 99.6091Z" fill="black"/>
<path fill-rule="evenodd" clip-rule="evenodd" d="M282.713 84.0839C281.351 84.2833 280.87 85.1391 281.162 86.5049C281.499 88.0807 282.353 88.0938 283.88 88.2409C287.561 88.2525 285.159 83.7264 282.713 84.0839Z" fill="black"/>
<path fill-rule="evenodd" clip-rule="evenodd" d="M315.026 75.6269C315.363 76.5622 317.193 76.9848 318.149 76.628C319.286 76.2037 319.522 75.1726 318.496 74.2254C317.617 73.4144 316.405 73.6282 315.304 73.7035C315.341 74.0575 314.816 75.045 315.026 75.6269Z" fill="black"/>
<path fill-rule="evenodd" clip-rule="evenodd" d="M200.543 182.225C202.283 182.223 200.641 179.276 199.207 179.092C199.237 180.004 199.177 182.228 200.543 182.225Z" fill="black"/>
</svg>
